<svg xmlns="http://www.w3.org/2000/svg" viewBox="0 0 5684 1980"><defs><style>.cls-1,.cls-6{font-size:19px;}.cls-1,.cls-5,.cls-87{font-family:RobotoMonoNerdFontCompleteM-Regular, RobotoMono Nerd Font Mono;}.cls-19,.cls-2,.cls-20,.cls-4,.cls-68,.cls-69,.cls-70,.cls-88{fill:none;}.cls-2{stroke:#1d1d1b;}.cls-21,.cls-3{fill:#f3f2f1;}.cls-21,.cls-4,.cls-88{stroke:#b1b4b6;}.cls-5,.cls-72{font-size:14px;}.cls-15,.cls-23,.cls-6,.cls-85{fill:#1a171b;}.cls-28,.cls-34,.cls-6,.cls-72{font-family:NTA-Medium, NTA;font-weight:500;}.cls-7{letter-spacing:-0.02em;}.cls-8{letter-spacing:-0.03em;}.cls-9{letter-spacing:-0.01em;}.cls-10{letter-spacing:-0.01em;}.cls-11{letter-spacing:-0.01em;}.cls-12{letter-spacing:-0.03em;}.cls-13{letter-spacing:-0.01em;}.cls-14{letter-spacing:-0.03em;}.cls-15{font-size:30px;}.cls-15,.cls-23,.cls-85{font-family:NTA-Bold, NTA;font-weight:700;}.cls-16{letter-spacing:-0.01em;}.cls-17{letter-spacing:-0.01em;}.cls-18{letter-spacing:-0.02em;}.cls-19,.cls-69{stroke:#6f777b;}.cls-19,.cls-20,.cls-21,.cls-68,.cls-69,.cls-70,.cls-88{stroke-miterlimit:10;}.cls-19{stroke-dasharray:10;}.cls-20,.cls-68{stroke:#475453;}.cls-22{fill:#fff;}.cls-23{font-size:90px;}.cls-24{letter-spacing:-0.01em;}.cls-25{letter-spacing:-0.02em;}.cls-26{letter-spacing:0em;}.cls-27{letter-spacing:0em;}.cls-28{font-size:60px;}.cls-28,.cls-34{fill:#6f777b;}.cls-29{letter-spacing:-0.02em;}.cls-30{letter-spacing:-0.01em;}.cls-31{letter-spacing:-0.02em;}.cls-32{letter-spacing:-0.03em;}.cls-33{letter-spacing:-0.02em;}.cls-34,.cls-87{font-size:16px;}.cls-35{letter-spacing:-0.01em;}.cls-36{letter-spacing:-0.02em;}.cls-37{letter-spacing:0em;}.cls-38{letter-spacing:-0.01em;}.cls-39{letter-spacing:-0.02em;}.cls-40{letter-spacing:-0.01em;}.cls-41{letter-spacing:-0.01em;}.cls-42{letter-spacing:-0.01em;}.cls-43{letter-spacing:-0.03em;}.cls-44{letter-spacing:0em;}.cls-45{letter-spacing:-0.02em;}.cls-46{letter-spacing:-0.01em;}.cls-47{letter-spacing:0em;}.cls-48{letter-spacing:-0.01em;}.cls-49{letter-spacing:0em;}.cls-50{letter-spacing:-0.01em;}.cls-51{letter-spacing:-0.02em;}.cls-52{letter-spacing:-0.02em;}.cls-53{letter-spacing:-0.01em;}.cls-54{letter-spacing:-0.01em;}.cls-55{letter-spacing:-0.01em;}.cls-56{letter-spacing:0em;}.cls-57{letter-spacing:0em;}.cls-58{letter-spacing:0em;}.cls-59{letter-spacing:0em;}.cls-60{letter-spacing:-0.02em;}.cls-61{letter-spacing:-0.03em;}.cls-62{letter-spacing:-0.01em;}.cls-63{letter-spacing:0em;}.cls-64{letter-spacing:0em;}.cls-65{letter-spacing:-0.01em;}.cls-66{letter-spacing:-0.02em;}.cls-67{fill:#475453;}.cls-68{stroke-width:1.08px;stroke-dasharray:1.08;}.cls-69{stroke-width:10px;stroke-dasharray:4;}.cls-70{stroke:#f47738;stroke-dasharray:4 4;}.cls-71,.cls-72{fill:#f47738;}.cls-73{letter-spacing:-0.02em;}.cls-74{letter-spacing:-0.01em;}.cls-75{letter-spacing:-0.01em;}.cls-76{letter-spacing:-0.01em;}.cls-77{letter-spacing:-0.01em;}.cls-78{letter-spacing:-0.01em;}.cls-79{letter-spacing:-0.01em;}.cls-80{letter-spacing:-0.01em;}.cls-81{letter-spacing:0em;}.cls-82{letter-spacing:-0.01em;}.cls-83{letter-spacing:-0.02em;}.cls-84{letter-spacing:0em;}.cls-85{font-size:24px;letter-spacing:-0.03em;}.cls-86{letter-spacing:-0.01em;}.cls-89{letter-spacing:0em;}.cls-90{letter-spacing:0em;}.cls-91{letter-spacing:-0.03em;}.cls-92{letter-spacing:-0.01em;}.cls-93{letter-spacing:-0.01em;}.cls-94{letter-spacing:0em;}.cls-95{letter-spacing:-0.01em;}.cls-96{letter-spacing:-0.03em;}.cls-97{letter-spacing:-0.03em;}.cls-98{letter-spacing:-0.03em;}.cls-99{letter-spacing:-0.02em;}.cls-100{letter-spacing:-0.02em;}.cls-101{letter-spacing:-0.01em;}</style></defs><g id="development-policy"><text class="cls-1" transform="translate(2780.06 980.39)">development-policy</text><rect class="cls-2" x="2766.06" y="950.14" width="269.97" height="49.4"/><text class="cls-1" transform="translate(3057.24 980.39)">name</text><rect class="cls-2" x="3043.24" y="950.14" width="81.77" height="49.4"/><text class="cls-1" transform="translate(3146.38 980.39)">geography</text><rect class="cls-2" x="3132.38" y="950.14" width="148.99" height="49.4"/><text class="cls-1" transform="translate(3700.57 980.39)">notes</text><rect class="cls-2" x="3686.57" y="950.14" width="95.21" height="49.4"/><text class="cls-1" transform="translate(3802.99 980.39)">description</text><rect class="cls-2" x="3788.99" y="950.14" width="175.87" height="49.4"/><text class="cls-1" transform="translate(3302.22 980.39)">development-policy-category</text><rect class="cls-2" x="3288.22" y="950.14" width="390.96" height="49.4"/><rect class="cls-2" x="3294.22" y="956.14" width="378.96" height="37.4"/><text class="cls-1" transform="translate(4273.95 980.39)">end-date</text><rect class="cls-3" x="4260.95" y="951.14" width="133.54" height="47.4"/><rect class="cls-4" x="4259.95" y="950.14" width="135.54" height="49.4"/><text class="cls-1" transform="translate(4273.95 980.39)">end-date</text><text class="cls-1" transform="translate(4104.32 980.39)">start-date</text><rect class="cls-3" x="4091.32" y="951.14" width="160.43" height="47.4"/><rect class="cls-4" x="4090.32" y="950.14" width="162.43" height="49.4"/><text class="cls-1" transform="translate(4104.32 980.39)">start-date</text><text class="cls-5" transform="translate(3978.06 988.93)">entry-date</text><rect class="cls-3" x="3972.06" y="970.95" width="111.05" height="27.77"/><rect class="cls-4" x="3971.06" y="969.95" width="113.05" height="29.77"/><text class="cls-5" transform="translate(3978.06 988.93)">entry-date</text><text class="cls-6" transform="translate(2767.93 879.2)">Describes a polic<tspan class="cls-7" x="148.26" y="0">y</tspan><tspan x="157.17" y="0" xml:space="preserve"> in a plan.</tspan><tspan class="cls-8" x="0" y="22.8">A</tspan><tspan x="12.2" y="22.8" xml:space="preserve"> singl</tspan><tspan class="cls-9" x="58" y="22.8">e</tspan><tspan x="68.21" y="22.8" xml:space="preserve"> entr</tspan><tspan class="cls-7" x="108.81" y="22.8">y</tspan><tspan x="117.72" y="22.8"> </tspan><tspan class="cls-8" x="122.51" y="22.8">(</tspan><tspan class="cls-10" x="129.79" y="22.8">r</tspan><tspan class="cls-11" x="136.67" y="22.8">o</tspan><tspan class="cls-12" x="147.44" y="22.8">w</tspan><tspan x="161.21" y="22.8">) describes a singl</tspan><tspan class="cls-13" x="318.21" y="22.8">e</tspan><tspan x="328.41" y="22.8" xml:space="preserve"> polic</tspan><tspan class="cls-14" x="375.63" y="22.8">y</tspan><tspan x="384.42" y="22.8">. </tspan></text><text class="cls-15" transform="translate(2766.93 849.71)">D<tspan class="cls-16" x="21.63" y="0">e</tspan><tspan class="cls-17" x="38.22" y="0">v</tspan><tspan x="53.34" y="0">elopment polic</tspan><tspan class="cls-18" x="263.37" y="0">y</tspan></text></g><g id="Layer_1" data-name="Layer 1"><polyline class="cls-19" points="392 576.5 392 564.5 2209 564.5 2209 576.5"/><polyline class="cls-19" points="3478 1014.5 3478 1035.5 4886 1035.5 4886 1015.5"/><polyline class="cls-19" points="2901.43 1016.5 2901.43 1094.5 3800.5 1094.5 3800.5 1378"/><polyline class="cls-19" points="3520.5 1456 3520.5 1475.5 4825 1475.5 4825 1456.5"/><polyline class="cls-19" points="378 1014.5 378 1027.5 1332 1027.5 1332 1013.5"/><rect class="cls-20" x="3664" y="1389.5" width="271" height="50" transform="translate(7599 2829) rotate(180)"/><text class="cls-1" transform="translate(3678.51 1420.05)">development-policy</text><rect class="cls-20" x="3385.5" y="1389.5" width="271" height="50" transform="translate(7042 2829) rotate(180)"/><text class="cls-1" transform="translate(3400.01 1420.05)">development-metric</text><rect class="cls-21" x="5422.5" y="966.5" width="99" height="34" transform="translate(10944 1967) rotate(180)"/><text class="cls-5" transform="translate(5432.38 989.05)">end-date</text><rect class="cls-21" x="5299.5" y="966.5" width="119" height="34" transform="translate(10718 1967) rotate(180)"/><text class="cls-5" transform="translate(5309.47 989.05)">start-date</text><rect class="cls-21" x="5176.93" y="966.5" width="119" height="34" transform="translate(10472.86 1967) rotate(180)"/><text class="cls-5" transform="translate(5186.91 989.05)">entry-date</text><rect class="cls-21" x="5302.5" y="1405.5" width="99" height="34" transform="translate(10704 2845) rotate(180)"/><text class="cls-5" transform="translate(5312.38 1428.05)">end-date</text><rect class="cls-21" x="5179.5" y="1405.5" width="119" height="34" transform="translate(10478 2845) rotate(180)"/><text class="cls-5" transform="translate(5189.47 1428.05)">start-date</text><rect class="cls-21" x="5056.93" y="1405.5" width="119" height="34" transform="translate(10232.86 2845) rotate(180)"/><text class="cls-5" transform="translate(5066.91 1428.05)">entry-date</text><rect class="cls-21" x="4292.5" y="1405.5" width="99" height="34" transform="translate(8684 2845) rotate(180)"/><text class="cls-5" transform="translate(4302.38 1428.05)">end-date</text><rect class="cls-21" x="4169.5" y="1405.5" width="119" height="34" transform="translate(8458 2845) rotate(180)"/><text class="cls-5" transform="translate(4179.47 1428.05)">start-date</text><rect class="cls-21" x="4046.93" y="1405.5" width="119" height="34" transform="translate(8212.86 2845) rotate(180)"/><text class="cls-5" transform="translate(4056.91 1428.05)">entry-date</text><rect class="cls-21" x="891.5" y="966.5" width="99" height="34" transform="translate(1882 1967) rotate(180)"/><text class="cls-5" transform="translate(901.38 989.05)">end-date</text><rect class="cls-21" x="768.5" y="966.5" width="119" height="34" transform="translate(1656 1967) rotate(180)"/><text class="cls-5" transform="translate(778.47 989.05)">start-date</text><rect class="cls-21" x="645.93" y="966.5" width="119" height="34" transform="translate(1410.86 1967) rotate(180)"/><text class="cls-5" transform="translate(655.91 989.05)">entry-date</text><rect class="cls-21" x="863.5" y="616.5" width="99" height="34" transform="translate(1826 1267) rotate(180)"/><text class="cls-5" transform="translate(873.38 639.05)">end-date</text><rect class="cls-21" x="740.5" y="616.5" width="119" height="34" transform="translate(1600 1267) rotate(180)"/><text class="cls-5" transform="translate(750.47 639.05)">start-date</text><rect class="cls-21" x="617.93" y="616.5" width="119" height="34" transform="translate(1354.86 1267) rotate(180)"/><text class="cls-5" transform="translate(627.91 639.05)">entry-date</text><rect class="cls-20" x="208.55" y="599.5" width="312" height="50" transform="translate(729.11 1249) rotate(180)"/><text class="cls-1" transform="translate(223.4 630.05)">development-plan-type</text><rect class="cls-20" x="530.5" y="599.5" width="83" height="50" transform="translate(1144 1249) rotate(180)"/><text class="cls-1" transform="translate(545.11 630.05)">name</text><rect class="cls-20" x="4689.5" y="1389.5" width="271" height="50" transform="translate(9650 2829) rotate(180)"/><text class="cls-1" transform="translate(4704.01 1420.05)">development-metric</text><rect class="cls-20" x="4967.5" y="1389.5" width="83" height="50" transform="translate(10018 2829) rotate(180)"/><text class="cls-1" transform="translate(4982.11 1420.05)">name</text><rect class="cls-20" x="208.5" y="950.5" width="339" height="50" transform="translate(756 1951) rotate(180)"/><text class="cls-1" transform="translate(223.41 981.05)">development-plan-status</text><rect class="cls-20" x="556.5" y="950.5" width="83" height="50" transform="translate(1196 1951) rotate(180)"/><text class="cls-1" transform="translate(571.11 981.05)">name</text><rect class="cls-20" x="3941.86" y="1389.5" width="97" height="50" transform="translate(7980.72 2829) rotate(180)"/><text class="cls-1" transform="translate(3956.75 1420.05)">value</text><rect class="cls-20" x="4689.5" y="950.5" width="392" height="50" transform="translate(9771 1951) rotate(180)"/><text class="cls-1" transform="translate(4704.02 981.05)">development-policy-category</text><rect class="cls-20" x="5088.5" y="950.5" width="83" height="50" transform="translate(10260 1951) rotate(180)"/><text class="cls-1" transform="translate(5103.11 981.05)">name</text><path class="cls-19" d="M1581.5,648v91.5c64,.26,216,.85,216,.57V924.55h-107v13"/><rect class="cls-22" x="1685.5" y="768.5" width="569" height="81"/><text class="cls-23" transform="translate(1146.93 218.9)"><tspan class="cls-24">L</tspan><tspan x="45.27" y="0">oca</tspan><tspan class="cls-25" x="195.39" y="0">l</tspan><tspan x="220.05" y="0" xml:space="preserve"> plan d</tspan><tspan class="cls-26" x="497.51" y="0">a</tspan><tspan x="545.3" y="0">tas</tspan><tspan class="cls-27" x="677.6" y="0">e</tspan><tspan x="727.82" y="0">t</tspan></text><text class="cls-28" transform="translate(175.93 1786.9)">MHC<tspan class="cls-29" x="137.58" y="0">L</tspan><tspan class="cls-30" x="166.5" y="0">G</tspan><tspan x="208.92" y="0"> </tspan><tspan class="cls-31" x="224.04" y="0">R</tspan><tspan x="261.78" y="0">egisters</tspan></text><text class="cls-28" transform="translate(1159.93 1786.9)"><tspan class="cls-16">L</tspan><tspan x="29.52" y="0">oca</tspan><tspan class="cls-32" x="127.86" y="0">l</tspan><tspan x="143.52" y="0" xml:space="preserve"> authorit</tspan><tspan class="cls-33" x="378.24" y="0">y</tspan><tspan x="406.38" y="0" xml:space="preserve"> d</tspan><tspan class="cls-27" x="456.66" y="0">a</tspan><tspan x="488.34" y="0">ta</tspan></text><text class="cls-28" transform="translate(4681.93 1786.9)">MHC<tspan class="cls-29" x="137.58" y="0">L</tspan><tspan class="cls-30" x="166.5" y="0">G</tspan><tspan x="208.92" y="0"> </tspan><tspan class="cls-31" x="224.04" y="0">R</tspan><tspan x="261.78" y="0">egisters</tspan></text><text class="cls-34" transform="translate(1706.93 795.1)">som<tspan class="cls-35" x="30.43" y="0">e</tspan><tspan x="39.02" y="0" xml:space="preserve"> documents go</tspan><tspan class="cls-36" x="146.88" y="0"> </tspan><tspan class="cls-37" x="150.59" y="0">th</tspan><tspan class="cls-38" x="166.03" y="0">r</tspan><tspan x="171.82" y="0">ough a numbe</tspan><tspan class="cls-39" x="274.18" y="0">r</tspan><tspan x="279.79" y="0"> </tspan><tspan class="cls-40" x="283.82" y="0">o</tspan><tspan class="cls-36" x="292.93" y="0">f</tspan><tspan class="cls-37" x="298.18" y="0" xml:space="preserve"> dif</tspan><tspan class="cls-41" x="321.18" y="0">f</tspan><tspan x="326.64" y="0">e</tspan><tspan class="cls-42" x="335.41" y="0">r</tspan><tspan x="341.2" y="0">ent stages.</tspan><tspan class="cls-43" x="0" y="19.2">A</tspan><tspan x="10.27" y="19.2" xml:space="preserve"> st</tspan><tspan class="cls-44" x="28.59" y="19.2">a</tspan><tspan x="37.04" y="19.2">tus is nam</tspan><tspan class="cls-35" x="111.17" y="19.2">e</tspan><tspan x="119.76" y="19.2"> </tspan><tspan class="cls-40" x="123.79" y="19.2">o</tspan><tspan class="cls-45" x="132.9" y="19.2">f </tspan><tspan x="141.86" y="19.2">th</tspan><tspan class="cls-35" x="157.3" y="19.2">e</tspan><tspan x="165.89" y="19.2" xml:space="preserve"> stage.</tspan><tspan x="0" y="38.4">The</tspan><tspan class="cls-42" x="26.51" y="38.4">r</tspan><tspan class="cls-35" x="32.3" y="38.4">e</tspan><tspan x="40.9" y="38.4" xml:space="preserve"> can b</tspan><tspan class="cls-35" x="84.37" y="38.4">e</tspan><tspan x="92.96" y="38.4" xml:space="preserve"> mulitpl</tspan><tspan class="cls-35" x="148.46" y="38.4">e</tspan><tspan x="157.06" y="38.4" xml:space="preserve"> st</tspan><tspan class="cls-44" x="175.38" y="38.4">a</tspan><tspan x="183.83" y="38.4">tus </tspan><tspan class="cls-42" x="211.14" y="38.4">r</tspan><tspan x="216.93" y="38.4">e</tspan><tspan class="cls-44" x="225.7" y="38.4">c</tspan><tspan x="234.16" y="38.4">o</tspan><tspan class="cls-46" x="243.35" y="38.4">r</tspan><tspan x="249.15" y="38.4">ds, som</tspan><tspan class="cls-35" x="305.42" y="38.4">e</tspan><tspan x="314.02" y="38.4" xml:space="preserve"> in</tspan><tspan class="cls-36" x="331.07" y="38.4"> </tspan><tspan x="334.79" y="38.4">th</tspan><tspan class="cls-35" x="350.23" y="38.4">e</tspan><tspan x="358.82" y="38.4" xml:space="preserve"> past, som</tspan><tspan class="cls-35" x="434.08" y="38.4">e</tspan><tspan x="442.67" y="38.4" xml:space="preserve"> in</tspan><tspan class="cls-45" x="459.73" y="38.4"> </tspan><tspan x="463.44" y="38.4">th</tspan><tspan class="cls-35" x="478.88" y="38.4">e </tspan><tspan x="491.33" y="38.4">futu</tspan><tspan class="cls-38" x="521.33" y="38.4">r</tspan><tspan class="cls-35" x="527.13" y="38.4">e</tspan></text><text class="cls-34" transform="translate(3198.93 771.1)"><tspan class="cls-43">A</tspan><tspan x="10.27" y="0" xml:space="preserve"> document </tspan><tspan class="cls-44" x="92.03" y="0">c</tspan><tspan x="100.5" y="0">ontains mu</tspan><tspan class="cls-47" x="180.93" y="0">l</tspan><tspan x="185.47" y="0">tipl</tspan><tspan class="cls-35" x="209.94" y="0">e</tspan><tspan x="218.53" y="0" xml:space="preserve"> policies.</tspan></text><text class="cls-34" transform="translate(3474.93 1057.1)"><tspan class="cls-48">P</tspan><tspan x="9.54" y="0">olicies can h</tspan><tspan class="cls-42" x="99.62" y="0">a</tspan><tspan class="cls-35" x="107.97" y="0">ve</tspan><tspan class="cls-49" x="124.38" y="0" xml:space="preserve"> mulitpl</tspan><tspan class="cls-35" x="179.89" y="0">e</tspan><tspan class="cls-37" x="188.48" y="0" xml:space="preserve"> c</tspan><tspan class="cls-47" x="201.04" y="0">a</tspan><tspan x="209.49" y="0">tegories.</tspan></text><text class="cls-34" transform="translate(3525.93 1500.1)"><tspan class="cls-50">E</tspan><tspan class="cls-35" x="9.38" y="0">v</tspan><tspan x="17.2" y="0">er</tspan><tspan class="cls-51" x="31.92" y="0">y</tspan><tspan x="39.42" y="0" xml:space="preserve"> m</tspan><tspan class="cls-47" x="56.87" y="0">e</tspan><tspan x="65.57" y="0">tric is</tspan><tspan class="cls-35" x="106.43" y="0"> </tspan><tspan x="110.29" y="0">f</tspan><tspan class="cls-42" x="115.86" y="0">r</tspan><tspan x="121.65" y="0">om a p</tspan><tspan class="cls-42" x="170.19" y="0">r</tspan><tspan x="175.99" y="0">e-defined list.</tspan></text><text class="cls-34" transform="translate(807.93 562.1)"><tspan class="cls-50">E</tspan><tspan class="cls-35" x="9.38" y="0">v</tspan><tspan x="17.2" y="0">er</tspan><tspan class="cls-51" x="31.92" y="0">y</tspan><tspan x="39.42" y="0" xml:space="preserve"> plan has a</tspan><tspan class="cls-45" x="116.86" y="0"> </tspan><tspan x="120.58" y="0">type.</tspan></text><text class="cls-34" transform="translate(783.93 1052.1)">The<tspan class="cls-42" x="26.51" y="0">r</tspan><tspan class="cls-35" x="32.3" y="0">e</tspan><tspan x="40.9" y="0" xml:space="preserve"> is a p</tspan><tspan class="cls-38" x="82.75" y="0">r</tspan><tspan x="88.54" y="0">e-defined s</tspan><tspan class="cls-47" x="169.94" y="0">e</tspan><tspan x="178.64" y="0">t </tspan><tspan class="cls-40" x="189.12" y="0">o</tspan><tspan class="cls-36" x="198.22" y="0">f</tspan><tspan x="0" y="19.2">st</tspan><tspan class="cls-44" x="14.29" y="19.2">a</tspan><tspan class="cls-37" x="22.74" y="19.2">tuses a plan can h</tspan><tspan class="cls-42" x="153.78" y="19.2">a</tspan><tspan class="cls-35" x="162.13" y="19.2">ve</tspan></text><text class="cls-34" transform="translate(3477.93 1120.1)"><tspan class="cls-43">A</tspan><tspan x="10.27" y="0" xml:space="preserve"> polic</tspan><tspan class="cls-51" x="50.03" y="0">y</tspan><tspan class="cls-37" x="57.54" y="0" xml:space="preserve"> might h</tspan><tspan class="cls-38" x="116.54" y="0">a</tspan><tspan class="cls-35" x="124.9" y="0">ve</tspan><tspan x="141.31" y="0" xml:space="preserve"> an associ</tspan><tspan class="cls-47" x="212.82" y="0">a</tspan><tspan x="221.26" y="0">ted m</tspan><tspan class="cls-44" x="263.3" y="0">e</tspan><tspan x="272" y="0">trics</tspan><tspan x="0" y="19.2">th</tspan><tspan class="cls-44" x="15.44" y="19.2">a</tspan><tspan class="cls-37" x="23.89" y="19.2">t can b</tspan><tspan class="cls-35" x="73.81" y="19.2">e</tspan><tspan class="cls-49" x="82.4" y="19.2" xml:space="preserve"> describ</tspan><tspan class="cls-35" x="140.3" y="19.2">e</tspan><tspan class="cls-37" x="148.9" y="19.2" xml:space="preserve"> as d</tspan><tspan class="cls-44" x="182.69" y="19.2">a</tspan><tspan x="191.14" y="19.2">ta</tspan></text><text class="cls-6" transform="translate(1159.93 883.2)">Describes<tspan class="cls-52" x="86.15" y="0"> </tspan><tspan x="90.55" y="0">th</tspan><tspan class="cls-9" x="108.89" y="0">e</tspan><tspan x="119.09" y="0" xml:space="preserve"> stages a plan goes</tspan><tspan class="cls-52" x="284.71" y="0"> </tspan><tspan x="289.12" y="0">th</tspan><tspan class="cls-10" x="307.46" y="0">r</tspan><tspan x="314.34" y="0">ough.</tspan><tspan class="cls-8" x="0" y="22.8">A</tspan><tspan x="12.2" y="22.8" xml:space="preserve"> singl</tspan><tspan class="cls-9" x="58" y="22.8">e</tspan><tspan x="68.21" y="22.8" xml:space="preserve"> entr</tspan><tspan class="cls-7" x="108.81" y="22.8">y</tspan><tspan x="117.72" y="22.8"> </tspan><tspan class="cls-8" x="122.51" y="22.8">(</tspan><tspan class="cls-10" x="129.79" y="22.8">r</tspan><tspan class="cls-11" x="136.67" y="22.8">o</tspan><tspan class="cls-12" x="147.44" y="22.8">w</tspan><tspan x="161.21" y="22.8">) describes a singl</tspan><tspan class="cls-13" x="318.21" y="22.8">e</tspan><tspan x="328.41" y="22.8" xml:space="preserve"> stag</tspan><tspan class="cls-9" x="371.05" y="22.8">e</tspan><tspan x="381.25" y="22.8" xml:space="preserve"> e</tspan><tspan class="cls-53" x="396.45" y="22.8">.</tspan><tspan x="401.43" y="22.8">g. </tspan><tspan class="cls-54" x="422.16" y="22.8">e</tspan><tspan class="cls-55" x="432.4" y="22.8">x</tspan><tspan x="441.96" y="22.8">amin</tspan><tspan class="cls-56" x="483.45" y="22.8">a</tspan><tspan x="493.49" y="22.8">tion stage. </tspan></text><text class="cls-6" transform="translate(4689.5 882.2)"><tspan class="cls-8">A</tspan><tspan x="12.2" y="0" xml:space="preserve"> list </tspan><tspan class="cls-57" x="49" y="0">o</tspan><tspan class="cls-52" x="59.81" y="0">f</tspan><tspan x="66.04" y="0" xml:space="preserve"> all</tspan><tspan class="cls-11" x="91.88" y="0">o</tspan><tspan class="cls-58" x="102.66" y="0">w</tspan><tspan class="cls-59" x="116.85" y="0">abl</tspan><tspan class="cls-9" x="143.56" y="0">e</tspan><tspan x="153.77" y="0" xml:space="preserve"> c</tspan><tspan class="cls-58" x="168.68" y="0">a</tspan><tspan x="178.71" y="0">tegories</tspan><tspan class="cls-9" x="250.04" y="0"> </tspan><tspan class="cls-11" x="254.62" y="0">f</tspan><tspan x="261.1" y="0">o</tspan><tspan class="cls-60" x="272.01" y="0">r</tspan><tspan x="278.68" y="0" xml:space="preserve"> policies.</tspan></text><text class="cls-6" transform="translate(208.5 883.2)"><tspan class="cls-8">A</tspan><tspan x="12.2" y="0" xml:space="preserve"> list </tspan><tspan class="cls-57" x="49" y="0">o</tspan><tspan class="cls-52" x="59.81" y="0">f</tspan><tspan x="66.04" y="0" xml:space="preserve"> st</tspan><tspan class="cls-58" x="87.8" y="0">a</tspan><tspan x="97.83" y="0">tuses a plan can h</tspan><tspan class="cls-10" x="253.44" y="0">a</tspan><tspan class="cls-9" x="263.36" y="0">ve</tspan><tspan x="282.85" y="0" xml:space="preserve"> e</tspan><tspan class="cls-53" x="298.05" y="0">.</tspan><tspan x="303.03" y="0">g. ado</tspan><tspan class="cls-11" x="355.91" y="0">p</tspan><tspan x="366.91" y="0">ted.</tspan></text><text class="cls-6" transform="translate(208.5 523.2)"><tspan class="cls-8">A</tspan><tspan x="12.2" y="0" xml:space="preserve"> list </tspan><tspan class="cls-57" x="49" y="0">o</tspan><tspan class="cls-52" x="59.81" y="0">f</tspan><tspan x="66.04" y="0" xml:space="preserve"> all</tspan><tspan class="cls-11" x="91.88" y="0">o</tspan><tspan class="cls-58" x="102.66" y="0">w</tspan><tspan class="cls-59" x="116.85" y="0">abl</tspan><tspan class="cls-9" x="143.56" y="0">e</tspan><tspan x="153.77" y="0" xml:space="preserve"> plan</tspan><tspan class="cls-52" x="195.95" y="0"> </tspan><tspan x="200.36" y="0">types e</tspan><tspan class="cls-53" x="263.42" y="0">.</tspan><tspan x="268.39" y="0">g. loca</tspan><tspan class="cls-61" x="325.74" y="0">l</tspan><tspan x="330.69" y="0" xml:space="preserve"> plan.</tspan></text><text class="cls-6" transform="translate(4689.5 1309.2)"><tspan class="cls-8">A</tspan><tspan x="12.2" y="0" xml:space="preserve"> list </tspan><tspan class="cls-57" x="49" y="0">o</tspan><tspan class="cls-52" x="59.81" y="0">f</tspan><tspan x="66.04" y="0" xml:space="preserve"> all</tspan><tspan class="cls-11" x="91.88" y="0">o</tspan><tspan class="cls-58" x="102.66" y="0">w</tspan><tspan class="cls-59" x="116.85" y="0">abl</tspan><tspan class="cls-9" x="143.56" y="0">e</tspan><tspan x="153.77" y="0" xml:space="preserve"> m</tspan><tspan class="cls-58" x="174.48" y="0">e</tspan><tspan x="184.81" y="0">trics.</tspan></text><text class="cls-6" transform="translate(3386.93 1309.2)">Describes a m<tspan class="cls-58" x="121.75" y="0">e</tspan><tspan x="132.09" y="0">tric in a polic</tspan><tspan class="cls-14" x="244.09" y="0">y</tspan><tspan x="252.89" y="0">.</tspan><tspan class="cls-8" x="0" y="22.8">A</tspan><tspan x="12.2" y="22.8" xml:space="preserve"> singl</tspan><tspan class="cls-9" x="58" y="22.8">e</tspan><tspan x="68.21" y="22.8" xml:space="preserve"> entr</tspan><tspan class="cls-7" x="108.81" y="22.8">y</tspan><tspan x="117.72" y="22.8"> </tspan><tspan class="cls-8" x="122.51" y="22.8">(</tspan><tspan class="cls-10" x="129.79" y="22.8">r</tspan><tspan class="cls-11" x="136.67" y="22.8">o</tspan><tspan class="cls-12" x="147.44" y="22.8">w</tspan><tspan x="161.21" y="22.8">) describes a singl</tspan><tspan class="cls-13" x="318.21" y="22.8">e</tspan><tspan x="328.41" y="22.8" xml:space="preserve"> m</tspan><tspan class="cls-58" x="349.12" y="22.8">e</tspan><tspan x="359.46" y="22.8">tric. </tspan></text><text class="cls-15" transform="translate(208.5 492.9)">D<tspan class="cls-16" x="21.63" y="0">e</tspan><tspan class="cls-17" x="38.22" y="0">v</tspan><tspan x="53.34" y="0">elopment plan</tspan><tspan class="cls-39" x="254.79" y="0"> </tspan><tspan x="261.42" y="0">typ</tspan><tspan class="cls-62" x="307.35" y="0">e</tspan></text><text class="cls-15" transform="translate(208.93 849.71)">D<tspan class="cls-16" x="21.63" y="0">e</tspan><tspan class="cls-17" x="38.22" y="0">v</tspan><tspan x="53.34" y="0">elopment plan st</tspan><tspan class="cls-63" x="290.07" y="0">a</tspan><tspan x="306" y="0">tus</tspan></text><text class="cls-15" transform="translate(1159.93 849.71)">D<tspan class="cls-16" x="21.63" y="0">e</tspan><tspan class="cls-17" x="38.22" y="0">v</tspan><tspan x="53.34" y="0">elopment plan</tspan><tspan class="cls-39" x="254.79" y="0"> </tspan><tspan x="261.42" y="0">tim</tspan><tspan class="cls-64" x="308.1" y="0">e</tspan><tspan x="324.84" y="0">tabl</tspan><tspan class="cls-65" x="380.52" y="0">e</tspan></text><text class="cls-15" transform="translate(3385.93 1280.71)">D<tspan class="cls-16" x="21.63" y="0">e</tspan><tspan class="cls-17" x="38.22" y="0">v</tspan><tspan x="53.34" y="0">elopment polic</tspan><tspan class="cls-18" x="263.37" y="0">y</tspan><tspan x="277.98" y="0" xml:space="preserve"> m</tspan><tspan class="cls-27" x="311.34" y="0">e</tspan><tspan x="328.08" y="0">tric</tspan></text><text class="cls-15" transform="translate(4689.5 1280.71)">D<tspan class="cls-16" x="21.63" y="0">e</tspan><tspan class="cls-17" x="38.22" y="0">v</tspan><tspan x="53.34" y="0">elopment m</tspan><tspan class="cls-64" x="220.83" y="0">e</tspan><tspan x="237.57" y="0">tric</tspan></text><text class="cls-15" transform="translate(4689.5 852.71)">D<tspan class="cls-16" x="21.63" y="0">e</tspan><tspan class="cls-17" x="38.22" y="0">v</tspan><tspan x="53.34" y="0">elopment polic</tspan><tspan class="cls-18" x="263.37" y="0">y</tspan><tspan x="277.98" y="0" xml:space="preserve"> c</tspan><tspan class="cls-63" x="301.62" y="0">a</tspan><tspan x="317.55" y="0">tegor</tspan><tspan class="cls-66" x="393.75" y="0">y</tspan></text><path class="cls-19" d="M3184.5,661.5v263h-283V941"/><circle class="cls-67" cx="1581" cy="635" r="7.3"/><circle class="cls-68" cx="1581" cy="635" r="10"/><circle class="cls-67" cx="2209" cy="586" r="7.3"/><circle class="cls-68" cx="2209" cy="586" r="10"/><circle class="cls-67" cx="2901" cy="950" r="7.3"/><circle class="cls-68" cx="2901" cy="950" r="10"/><circle class="cls-67" cx="4886" cy="1001" r="7.3"/><circle class="cls-68" cx="4886" cy="1001" r="10"/><circle class="cls-67" cx="4825" cy="1440" r="7.3"/><circle class="cls-68" cx="4825" cy="1440" r="10"/><circle class="cls-67" cx="3185" cy="635" r="7.3"/><circle class="cls-68" cx="3185" cy="635" r="10"/><circle class="cls-67" cx="2901" cy="1000" r="7.3"/><circle class="cls-68" cx="2901" cy="1000" r="10"/><circle class="cls-67" cx="3478" cy="1000" r="7.3"/><circle class="cls-68" cx="3478" cy="1000" r="10"/><circle class="cls-67" cx="3799.5" cy="1390" r="7.3"/><circle class="cls-68" cx="3799.5" cy="1390" r="10"/><circle class="cls-67" cx="3520.5" cy="1439" r="7.3"/><circle class="cls-68" cx="3520.5" cy="1439" r="10"/><circle class="cls-67" cx="1690" cy="951" r="7.3"/><circle class="cls-68" cx="1690" cy="951" r="10"/><circle class="cls-67" cx="1332" cy="1001" r="7.3"/><circle class="cls-68" cx="1332" cy="1001" r="10"/><circle class="cls-67" cx="378" cy="1000" r="7.3"/><circle class="cls-68" cx="378" cy="1000" r="10"/><circle class="cls-67" cx="365" cy="599" r="7.3"/><circle class="cls-68" cx="365" cy="599" r="10"/><line class="cls-69" x1="1058" y1="279" x2="1058" y2="1799"/><line class="cls-69" x1="4596" y1="279" x2="4596" y2="1799"/></g><g id="development-plan-timetable"><text class="cls-1" transform="translate(2108.41 981.49)">start-date</text><rect class="cls-3" x="2095.41" y="952.23" width="160.43" height="47.4"/><rect class="cls-4" x="2094.41" y="951.23" width="162.43" height="49.4"/><text class="cls-1" transform="translate(2108.41 981.49)">start-date</text><text class="cls-1" transform="translate(2276.83 981.49)">end-date</text><rect class="cls-3" x="2263.83" y="952.23" width="133.54" height="47.4"/><rect class="cls-4" x="2262.83" y="951.23" width="135.54" height="49.4"/><text class="cls-1" transform="translate(2276.83 981.49)">end-date</text><text class="cls-5" transform="translate(1983.41 989.49)">entry-date</text><rect class="cls-3" x="1977.41" y="971.51" width="111.05" height="27.77"/><rect class="cls-4" x="1976.41" y="970.51" width="113.05" height="29.77"/><text class="cls-5" transform="translate(1983.41 989.49)">entry-date</text><text class="cls-1" transform="translate(1177.18 981.49)">development-plan-status</text><rect class="cls-2" x="1163.18" y="951.23" width="337.19" height="49.4"/><text class="cls-1" transform="translate(1520.37 981.49)">development-plan-document</text><rect class="cls-2" x="1506.37" y="951.23" width="364.07" height="49.4"/><text class="cls-1" transform="translate(1890.44 981.49)">notes</text><rect class="cls-2" x="1876.44" y="951.23" width="95.21" height="49.4"/></g><g id="development-plan-document"><text class="cls-1" transform="translate(3349.26 615.91)">entry-date</text><rect class="cls-3" x="3336.26" y="586.65" width="160.43" height="47.4"/><rect class="cls-4" x="3335.26" y="585.65" width="162.43" height="49.4"/><text class="cls-1" transform="translate(3349.26 615.91)">entry-date</text><text class="cls-1" transform="translate(3517.69 615.91)">start-date</text><rect class="cls-3" x="3504.69" y="586.65" width="160.43" height="47.4"/><rect class="cls-4" x="3503.69" y="585.65" width="162.43" height="49.4"/><text class="cls-1" transform="translate(3517.69 615.91)">start-date</text><text class="cls-1" transform="translate(3686.11 615.91)">end-date</text><rect class="cls-3" x="3673.11" y="586.65" width="133.54" height="47.4"/><rect class="cls-4" x="3672.11" y="585.65" width="135.54" height="49.4"/><text class="cls-1" transform="translate(3686.11 615.91)">end-date</text><text class="cls-1" transform="translate(1403.23 615.91)">development-plan-document</text><rect class="cls-2" x="1389.23" y="585.65" width="364.07" height="49.4"/><text class="cls-1" transform="translate(1773.3 615.91)">name</text><rect class="cls-2" x="1759.3" y="585.65" width="81.77" height="49.4"/><text class="cls-1" transform="translate(1861.07 615.91)">document-url</text><rect class="cls-2" x="1847.07" y="585.65" width="189.31" height="49.4"/><text class="cls-1" transform="translate(2763.31 615.91)">notes</text><rect class="cls-2" x="2749.31" y="585.65" width="95.21" height="49.4"/><text class="cls-1" transform="translate(2864.53 615.91)">description</text><rect class="cls-2" x="2850.53" y="585.65" width="175.87" height="49.4"/><text class="cls-1" transform="translate(2056.38 615.91)">development-plan-type</text><rect class="cls-2" x="2042.38" y="585.65" width="310.3" height="49.4"/><rect class="cls-2" x="2048.38" y="591.65" width="298.3" height="37.4"/><text class="cls-1" transform="translate(2372.69 615.91)">organisations</text><rect class="cls-2" x="2358.69" y="585.65" width="202.76" height="49.4"/><rect class="cls-2" x="2364.69" y="591.65" width="190.76" height="37.4"/><text class="cls-1" transform="translate(3046.4 615.91)">development-policies</text><rect class="cls-2" x="3032.4" y="585.65" width="296.86" height="49.4"/><rect class="cls-2" x="3038.4" y="591.65" width="284.86" height="37.4"/><text class="cls-1" transform="translate(2581.44 615.91)">geographies</text><rect class="cls-2" x="2567.44" y="585.65" width="175.87" height="49.4"/><rect class="cls-2" x="2573.44" y="591.65" width="163.87" height="37.4"/><text class="cls-6" transform="translate(1389.93 515.2)">Schema<tspan class="cls-52" x="69.1" y="0"> </tspan><tspan x="73.51" y="0">th</tspan><tspan class="cls-58" x="91.85" y="0">a</tspan><tspan x="101.88" y="0">t describes a document.</tspan><tspan class="cls-8" x="0" y="22.8">A</tspan><tspan x="12.2" y="22.8" xml:space="preserve"> singl</tspan><tspan class="cls-9" x="58" y="22.8">e</tspan><tspan x="68.21" y="22.8" xml:space="preserve"> entr</tspan><tspan class="cls-7" x="108.81" y="22.8">y</tspan><tspan x="117.72" y="22.8"> </tspan><tspan class="cls-8" x="122.51" y="22.8">(</tspan><tspan class="cls-10" x="129.79" y="22.8">r</tspan><tspan class="cls-11" x="136.67" y="22.8">o</tspan><tspan class="cls-12" x="147.44" y="22.8">w</tspan><tspan x="161.21" y="22.8">) describes a singl</tspan><tspan class="cls-13" x="318.21" y="22.8">e</tspan><tspan x="328.41" y="22.8" xml:space="preserve"> document. </tspan></text><text class="cls-15" transform="translate(1388.93 484.71)">D<tspan class="cls-16" x="21.63" y="0">e</tspan><tspan class="cls-17" x="38.22" y="0">v</tspan><tspan x="53.34" y="0">elopment plan document</tspan></text></g><g id="annotations"><path class="cls-70" d="M4052.61,1390.33c3.59.5,15.45.82,22.6-14.95"/><polygon class="cls-71" points="4055.58 1394.58 4056.32 1393.91 4053.01 1390.26 4056.89 1387.22 4056.27 1386.43 4051.55 1390.14 4055.58 1394.58"/><text class="cls-72" transform="translate(4083.02 1345.8)">a<tspan class="cls-73" x="7.45" y="0"> </tspan><tspan class="cls-74" x="10.65" y="0">v</tspan><tspan x="17.57" y="0">alu</tspan><tspan class="cls-75" x="36.92" y="0">e</tspan><tspan class="cls-76" x="-46.55" y="16.8">f</tspan><tspan x="-41.78" y="16.8">o</tspan><tspan class="cls-39" x="-33.74" y="16.8">r</tspan><tspan x="-28.83" y="16.8"> </tspan><tspan class="cls-77" x="-25.3" y="16.8">e</tspan><tspan class="cls-78" x="-17.75" y="16.8">x</tspan><tspan x="-10.71" y="16.8">ampl</tspan><tspan class="cls-75" x="20.71" y="16.8">e</tspan><tspan x="28.23" y="16.8" xml:space="preserve"> a numbe</tspan><tspan class="cls-39" x="86.08" y="16.8">r</tspan></text><path class="cls-70" d="M3923.65,1378.12c2.27-4.81,11.16-25.86-7.08-26.13"/><polygon class="cls-71" points="3928.7 1376.75 3928.31 1375.83 3923.77 1377.75 3922.19 1373.08 3921.24 1373.4 3923.17 1379.09 3928.7 1376.75"/><text class="cls-72" transform="translate(3807.6 1329.8)"><tspan class="cls-79">r</tspan><tspan x="5.07" y="0">e</tspan><tspan class="cls-76" x="12.74" y="0">f</tspan><tspan x="17.51" y="0">e</tspan><tspan class="cls-80" x="25.19" y="0">r</tspan><tspan x="30.25" y="0">en</tspan><tspan class="cls-81" x="45.79" y="0">c</tspan><tspan class="cls-82" x="53.2" y="0">e</tspan><tspan class="cls-83" x="60.72" y="0"> </tspan><tspan x="63.97" y="0">to</tspan><tspan class="cls-45" x="77.64" y="0"> </tspan><tspan x="80.89" y="0">th</tspan><tspan class="cls-75" x="94.4" y="0">e</tspan><tspan x="101.92" y="0" xml:space="preserve"> polic</tspan><tspan class="cls-73" x="136.71" y="0">y</tspan><tspan x="15.27" y="16.8">th</tspan><tspan class="cls-75" x="28.78" y="16.8">e</tspan><tspan class="cls-84" x="36.29" y="16.8" xml:space="preserve"> m</tspan><tspan class="cls-81" x="51.55" y="16.8">e</tspan><tspan x="59.17" y="16.8">tric is</tspan><tspan class="cls-75" x="94.93" y="16.8"> </tspan><tspan x="98.3" y="16.8">f</tspan><tspan class="cls-80" x="103.17" y="16.8">r</tspan><tspan x="108.24" y="16.8">om</tspan></text><rect class="cls-21" x="1236.06" y="1571.2" width="228" height="34" transform="translate(2700.12 3176.4) rotate(180)"/><text class="cls-5" transform="translate(1246.05 1593.75)">common register field</text><text class="cls-85" transform="translate(1327.93 1416.7)">K<tspan class="cls-86" x="15.12" y="0">e</tspan><tspan class="cls-18" x="28.44" y="0">y</tspan></text><rect class="cls-20" x="1210.56" y="1444.5" width="279" height="50" transform="translate(2700.12 2939) rotate(180)"/><text class="cls-87" transform="translate(1225.67 1475.31)">accepts a single value</text><rect class="cls-20" x="1204.56" y="1512.85" width="291" height="40" transform="translate(2700.12 3065.7) rotate(180)"/><rect class="cls-20" x="1199.56" y="1507.85" width="301" height="50" transform="translate(2700.12 3065.7) rotate(180)"/><text class="cls-87" transform="translate(1213.67 1538.65)">accepts a list of values</text><rect class="cls-88" x="1166.5" y="1372.5" width="374" height="319"/><path class="cls-70" d="M1278.64,1652.52c4.59-4.06,26.18-24.56,4.85-34"/><polygon class="cls-71" points="1283.83 1653.26 1283.84 1652.25 1278.9 1652.23 1279.29 1647.31 1278.29 1647.24 1277.83 1653.22 1283.83 1653.26"/><text class="cls-72" transform="translate(1306.02 1636.91)">an ann<tspan class="cls-76" x="42.03" y="0">o</tspan><tspan x="49.97" y="0">t</tspan><tspan class="cls-89" x="55.61" y="0">a</tspan><tspan class="cls-90" x="63" y="0">tion</tspan></text><text class="cls-72" transform="translate(4888.37 1062.8)">th<tspan class="cls-75" x="13.51" y="0">e</tspan><tspan class="cls-84" x="21.03" y="0" xml:space="preserve"> c</tspan><tspan class="cls-89" x="32.02" y="0">a</tspan><tspan x="39.41" y="0">tegor</tspan><tspan class="cls-51" x="73.91" y="0">y</tspan><tspan x="80.47" y="0" xml:space="preserve"> id</tspan></text><path class="cls-70" d="M4929.62,1018.13c-4.27,3.16-22.06,17.51-6.12,26.37"/><polygon class="cls-71" points="4924.52 1016.94 4924.43 1017.94 4929.34 1018.39 4928.52 1023.26 4929.51 1023.42 4930.5 1017.5 4924.52 1016.94"/><text class="cls-72" transform="translate(219.44 1060.8)">id<tspan class="cls-82" x="11.73" y="0"> </tspan><tspan class="cls-76" x="15.11" y="0">f</tspan><tspan x="19.88" y="0">o</tspan><tspan class="cls-39" x="27.92" y="0">r</tspan><tspan x="32.83" y="0" xml:space="preserve"> a st</tspan><tspan class="cls-81" x="59.84" y="0">a</tspan><tspan x="67.23" y="0">tus</tspan></text><path class="cls-70" d="M256.62,1016.13c-4.27,3.16-22.06,17.51-6.12,26.37"/><polygon class="cls-71" points="251.52 1014.94 251.43 1015.94 256.34 1016.39 255.52 1021.26 256.51 1021.42 257.5 1015.5 251.52 1014.94"/><text class="cls-72" transform="translate(4855.73 1492.8)">th<tspan class="cls-75" x="13.51" y="0">e</tspan><tspan class="cls-84" x="21.03" y="0" xml:space="preserve"> m</tspan><tspan class="cls-81" x="36.29" y="0">e</tspan><tspan x="43.9" y="0">tric id</tspan></text><path class="cls-70" d="M4889.62,1448.13c-4.27,3.16-22.06,17.51-6.12,26.37"/><polygon class="cls-71" points="4884.52 1446.94 4884.43 1447.94 4889.34 1448.39 4888.52 1453.26 4889.51 1453.42 4890.5 1447.5 4884.52 1446.94"/><text class="cls-72" transform="translate(5097.24 1055.8)">human <tspan class="cls-79" x="46.31" y="0">r</tspan><tspan x="51.38" y="0">eadabl</tspan><tspan class="cls-82" x="94.39" y="0">e</tspan><tspan x="101.91" y="0" xml:space="preserve"> nam</tspan><tspan class="cls-75" x="132.49" y="0">e</tspan><tspan class="cls-76" x="-20.78" y="16.8">f</tspan><tspan x="-16" y="16.8">o</tspan><tspan class="cls-39" x="-7.96" y="16.8">r</tspan><tspan class="cls-45" x="-3.05" y="16.8"> </tspan><tspan x="0.2" y="16.8">th</tspan><tspan class="cls-75" x="13.71" y="16.8">e</tspan><tspan x="21.23" y="16.8" xml:space="preserve"> c</tspan><tspan class="cls-89" x="32.22" y="16.8">a</tspan><tspan x="39.61" y="16.8">tegor</tspan><tspan class="cls-51" x="74.1" y="16.8">y</tspan><tspan x="80.67" y="16.8" xml:space="preserve"> e</tspan><tspan class="cls-80" x="91.87" y="16.8">.</tspan><tspan x="95.54" y="16.8">g. housing</tspan></text><path class="cls-70" d="M5148.86,1011.13c4.27,3.16,22.07,17.51,6.12,26.37"/><polygon class="cls-71" points="5148.97 1016.42 5149.96 1016.26 5149.15 1011.4 5154.06 1010.94 5153.96 1009.95 5147.98 1010.5 5148.97 1016.42"/><text class="cls-72" transform="translate(562.24 914.8)">human <tspan class="cls-79" x="46.31" y="0">r</tspan><tspan x="51.38" y="0">eadabl</tspan><tspan class="cls-82" x="94.39" y="0">e</tspan><tspan x="101.91" y="0" xml:space="preserve"> nam</tspan><tspan class="cls-75" x="132.49" y="0">e</tspan><tspan class="cls-78" x="-12.72" y="16.8">o</tspan><tspan class="cls-83" x="-4.75" y="16.8">f </tspan><tspan x="3.09" y="16.8">th</tspan><tspan class="cls-75" x="16.6" y="16.8">e</tspan><tspan x="24.12" y="16.8" xml:space="preserve"> st</tspan><tspan class="cls-81" x="40.15" y="16.8">a</tspan><tspan x="47.54" y="16.8">tus e</tspan><tspan class="cls-80" x="79.11" y="16.8">.</tspan><tspan x="82.78" y="16.8">g.</tspan><tspan class="cls-91" x="94.52" y="16.8"> </tspan><tspan class="cls-92" x="97.66" y="16.8">A</tspan><tspan x="106.86" y="16.8">do</tspan><tspan class="cls-76" x="123.1" y="16.8">p</tspan><tspan class="cls-84" x="131.2" y="16.8">ted</tspan></text><path class="cls-70" d="M643.65,958.17c5.29-.59,27.88-4,18.56-19.72"/><polygon class="cls-71" points="647.47 961.76 648.05 960.94 644.04 958.08 647.18 954.29 646.41 953.65 642.58 958.27 647.47 961.76"/><text class="cls-72" transform="translate(242.35 706.8)">id<tspan class="cls-75" x="11.73" y="0"> </tspan><tspan class="cls-93" x="15.11" y="0">f</tspan><tspan x="19.88" y="0">o</tspan><tspan class="cls-39" x="27.92" y="0">r</tspan><tspan class="cls-83" x="32.83" y="0"> </tspan><tspan x="36.08" y="0">th</tspan><tspan class="cls-82" x="49.59" y="0">e</tspan><tspan class="cls-83" x="57.11" y="0"> </tspan><tspan x="60.36" y="0">typ</tspan><tspan class="cls-82" x="81.09" y="0">e</tspan><tspan x="88.61" y="0"> </tspan><tspan class="cls-94" x="92.14" y="0">o</tspan><tspan class="cls-45" x="100.1" y="0">f</tspan><tspan x="104.69" y="0" xml:space="preserve"> plan</tspan></text><path class="cls-70" d="M303.62,662.13c-4.27,3.16-22.06,17.51-6.12,26.37"/><polygon class="cls-71" points="298.52 660.94 298.43 661.94 303.34 662.39 302.52 667.26 303.51 667.42 304.5 661.5 298.52 660.94"/><text class="cls-72" transform="translate(520.24 705.8)">human <tspan class="cls-79" x="46.31" y="0">r</tspan><tspan x="51.38" y="0">eadabl</tspan><tspan class="cls-82" x="94.39" y="0">e</tspan><tspan x="101.91" y="0" xml:space="preserve"> nam</tspan><tspan class="cls-75" x="132.49" y="0">e</tspan><tspan class="cls-78" x="-11.52" y="16.8">o</tspan><tspan class="cls-83" x="-3.56" y="16.8">f </tspan><tspan x="4.29" y="16.8">th</tspan><tspan class="cls-75" x="17.79" y="16.8">e</tspan><tspan class="cls-45" x="25.31" y="16.8"> </tspan><tspan x="28.56" y="16.8">typ</tspan><tspan class="cls-75" x="49.29" y="16.8">e</tspan><tspan x="56.81" y="16.8" xml:space="preserve"> e</tspan><tspan class="cls-80" x="68.01" y="16.8">.</tspan><tspan x="71.68" y="16.8">g. </tspan><tspan class="cls-95" x="86.95" y="16.8">L</tspan><tspan x="93.84" y="16.8">oca</tspan><tspan class="cls-96" x="116.79" y="16.8">l</tspan><tspan x="120.44" y="16.8" xml:space="preserve"> plan</tspan></text><path class="cls-70" d="M583.86,660.13c4.27,3.16,22.07,17.51,6.12,26.37"/><polygon class="cls-71" points="583.97 665.42 584.96 665.26 584.15 660.4 589.06 659.94 588.96 658.95 582.98 659.5 583.97 665.42"/><text class="cls-72" transform="translate(5008.24 1490.8)">human <tspan class="cls-79" x="46.31" y="0">r</tspan><tspan x="51.38" y="0">eadabl</tspan><tspan class="cls-82" x="94.39" y="0">e</tspan><tspan x="101.91" y="0" xml:space="preserve"> nam</tspan><tspan class="cls-75" x="132.49" y="0">e</tspan><tspan class="cls-76" x="-0.88" y="16.8">f</tspan><tspan x="3.89" y="16.8">o</tspan><tspan class="cls-39" x="11.93" y="16.8">r</tspan><tspan class="cls-45" x="16.84" y="16.8"> </tspan><tspan x="20.09" y="16.8">th</tspan><tspan class="cls-75" x="33.6" y="16.8">e</tspan><tspan x="41.12" y="16.8" xml:space="preserve"> m</tspan><tspan class="cls-89" x="56.38" y="16.8">e</tspan><tspan x="64" y="16.8">tric e</tspan><tspan class="cls-79" x="97.04" y="16.8">.</tspan><tspan x="100.7" y="16.8">g. unit</tspan></text><path class="cls-70" d="M5059.86,1446.13c4.27,3.16,22.07,17.51,6.12,26.37"/><polygon class="cls-71" points="5059.97 1451.42 5060.96 1451.26 5060.15 1446.4 5065.06 1445.94 5064.96 1444.94 5058.98 1445.5 5059.97 1451.42"/><text class="cls-72" transform="translate(3326.47 1468.99)"><tspan class="cls-79">r</tspan><tspan x="5.07" y="0">e</tspan><tspan class="cls-76" x="12.74" y="0">f</tspan><tspan x="17.51" y="0">e</tspan><tspan class="cls-80" x="25.19" y="0">r</tspan><tspan x="30.25" y="0">en</tspan><tspan class="cls-81" x="45.79" y="0">c</tspan><tspan class="cls-82" x="53.2" y="0">e</tspan><tspan class="cls-83" x="60.72" y="0"> </tspan><tspan x="63.97" y="0">to</tspan><tspan class="cls-45" x="77.64" y="0"> </tspan><tspan x="80.89" y="0">th</tspan><tspan class="cls-75" x="94.4" y="0">e</tspan><tspan x="101.92" y="0"> </tspan><tspan x="0" y="16.8">m</tspan><tspan class="cls-81" x="11.73" y="16.8">e</tspan><tspan x="19.35" y="16.8">tric</tspan><tspan class="cls-45" x="41.19" y="16.8"> </tspan><tspan x="44.44" y="16.8">typ</tspan><tspan class="cls-75" x="65.17" y="16.8">e</tspan></text><path class="cls-70" d="M3359.16,1432.57c-3.75,2-17.07,10-15.78,20.82"/><polygon class="cls-71" points="3354.28 1430.66 3354.04 1431.63 3358.84 1432.79 3357.33 1437.48 3358.28 1437.79 3360.12 1432.07 3354.28 1430.66"/><path class="cls-70" d="M1402,1008.23c-1.23,4.06-5,19.1,3.57,25.87"/><polygon class="cls-71" points="1397.18 1010.32 1397.7 1011.18 1401.9 1008.61 1404.16 1013 1405.05 1012.54 1402.3 1007.2 1397.18 1010.32"/><path class="cls-70" d="M1720.18,1008.05c3,4,14.62,21.12-3.91,26"/><polygon class="cls-71" points="1718.77 1013.16 1719.76 1013.28 1720.37 1008.39 1725.21 1009.35 1725.4 1008.37 1719.51 1007.2 1718.77 1013.16"/><g id="annos-timetable"><text class="cls-72" transform="translate(1379.47 1050.99)"><tspan class="cls-79">r</tspan><tspan x="5.07" y="0">e</tspan><tspan class="cls-76" x="12.74" y="0">f</tspan><tspan x="17.51" y="0">e</tspan><tspan class="cls-80" x="25.19" y="0">r</tspan><tspan x="30.25" y="0">en</tspan><tspan class="cls-81" x="45.79" y="0">c</tspan><tspan class="cls-82" x="53.2" y="0">e</tspan><tspan class="cls-83" x="60.72" y="0"> </tspan><tspan x="63.97" y="0">to a st</tspan><tspan class="cls-81" x="104.65" y="0">a</tspan><tspan x="112.04" y="0">tus </tspan></text><text class="cls-72" transform="translate(1634 1049.99)"><tspan class="cls-79">r</tspan><tspan x="5.07" y="0">e</tspan><tspan class="cls-76" x="12.74" y="0">f</tspan><tspan x="17.51" y="0">e</tspan><tspan class="cls-80" x="25.19" y="0">r</tspan><tspan x="30.25" y="0">en</tspan><tspan class="cls-81" x="45.79" y="0">c</tspan><tspan class="cls-82" x="53.2" y="0">e </tspan><tspan class="cls-76" x="64.09" y="0">f</tspan><tspan x="68.87" y="0">o</tspan><tspan class="cls-39" x="76.9" y="0">r</tspan><tspan x="81.82" y="0" xml:space="preserve"> a document </tspan></text><text class="cls-72" transform="translate(2113.6 1049.99)">when<tspan class="cls-45" x="33.92" y="0"> </tspan><tspan x="37.17" y="0">th</tspan><tspan class="cls-75" x="50.68" y="0">e</tspan><tspan x="58.2" y="0" xml:space="preserve"> plan</tspan><tspan x="-15.73" y="16.8">ente</tspan><tspan class="cls-79" x="13.13" y="16.8">r</tspan><tspan x="18.19" y="16.8">ed</tspan><tspan class="cls-45" x="34.07" y="16.8"> </tspan><tspan x="37.32" y="16.8">this st</tspan><tspan class="cls-81" x="77.25" y="16.8">a</tspan><tspan x="84.64" y="16.8">tus</tspan></text><path class="cls-70" d="M2175.18,1009.05c3,4,14.62,21.12-3.91,26"/><polygon class="cls-71" points="2173.77 1014.16 2174.76 1014.28 2175.37 1009.39 2180.21 1010.35 2180.4 1009.37 2174.51 1008.2 2173.77 1014.16"/><text class="cls-72" transform="translate(2285.86 1049.99)">when<tspan class="cls-45" x="33.92" y="0"> </tspan><tspan x="37.17" y="0">th</tspan><tspan class="cls-75" x="50.68" y="0">e</tspan><tspan x="58.2" y="0" xml:space="preserve"> plan</tspan><tspan x="-34.3" y="16.8">no longe</tspan><tspan class="cls-39" x="20.68" y="16.8">r</tspan><tspan x="25.59" y="16.8" xml:space="preserve"> had</tspan><tspan class="cls-45" x="52.64" y="16.8"> </tspan><tspan x="55.89" y="16.8">this st</tspan><tspan class="cls-81" x="95.82" y="16.8">a</tspan><tspan x="103.21" y="16.8">tus</tspan></text><path class="cls-70" d="M2331.18,1008.05c3,4,14.62,21.12-3.91,26"/><polygon class="cls-71" points="2329.77 1013.16 2330.76 1013.28 2331.37 1008.39 2336.21 1009.35 2336.4 1008.37 2330.51 1007.2 2329.77 1013.16"/></g><g id="annos-policy"><text class="cls-72" transform="translate(2767.47 1047.56)">an id</text><path class="cls-70" d="M2800.16,1011.57c-3.75,2-17.07,9.95-15.78,20.82"/><polygon class="cls-71" points="2795.28 1009.66 2795.04 1010.63 2799.84 1011.79 2798.33 1016.49 2799.28 1016.79 2801.12 1011.07 2795.28 1009.66"/><path class="cls-70" d="M3243,942.16c-4.89-2.09-25.52-11.94-12-24.24"/><polygon class="cls-71" points="3241.64 937.04 3240.71 937.43 3242.63 941.97 3237.95 943.55 3238.28 944.5 3243.97 942.57 3241.64 937.04"/><text class="cls-72" transform="translate(3226.6 903.8)">a<tspan class="cls-79" x="7.45" y="0">r</tspan><tspan x="12.52" y="0">ea</tspan><tspan class="cls-45" x="27.64" y="0"> </tspan><tspan x="30.88" y="0">th</tspan><tspan class="cls-75" x="44.39" y="0">e</tspan><tspan x="51.91" y="0" xml:space="preserve"> polic</tspan><tspan class="cls-73" x="86.7" y="0">y</tspan><tspan x="15.2" y="16.8">applies</tspan><tspan class="cls-45" x="61.15" y="16.8"> </tspan><tspan x="64.39" y="16.8">to</tspan></text><path class="cls-70" d="M4222.65,936.12c2.27-4.81,11.16-25.86-7.08-26.13"/><polygon class="cls-71" points="4227.7 934.75 4227.31 933.83 4222.77 935.75 4221.19 931.08 4220.24 931.4 4222.17 937.09 4227.7 934.75"/><path class="cls-71" d="M4113.66,900.23c0-2.17,1.29-3.71,3.19-3.71a2.47,2.47,0,0,1,1.91.81V894h1.48v9.81h-1.48v-.67a2.45,2.45,0,0,1-1.89.81C4115,903.94,4113.66,902.41,4113.66,900.23Zm5.14-.55a1.68,1.68,0,0,0-1.71-1.82c-1.23,0-1.92,1-1.92,2.33v.08c0,1.27.66,2.32,1.92,2.32a1.68,1.68,0,0,0,1.71-1.82Z"/><path class="cls-71" d="M4124.33,903.94a2.32,2.32,0,0,1-2.54-2.23,2.09,2.09,0,0,1,2-2.06l2.35-.35V899c0-.91-.6-1.17-1.35-1.17a4.42,4.42,0,0,0-2.14.57l-.63-1.16a5.4,5.4,0,0,1,2.73-.74c1.35,0,2.87.36,2.87,2.34v3.31c0,.27.13.51.54.68l.15.07-.67,1a1.58,1.58,0,0,1-1.26-.81A2.93,2.93,0,0,1,4124.33,903.94Zm.15-3.21c-.52.09-1.15.27-1.15.95s.61,1.06,1.26,1.06,1.56-.52,1.56-1.22v-1Z"/><path class="cls-71" d="M4131.89,901.94c0,.38.17.65.84.65a6,6,0,0,0,.9-.08l.19,1.32a10.09,10.09,0,0,1-1.46.11c-1.2,0-2-.48-2-1.75V898h-1.32v-1.33h1.32v-2.19c.5-.15,1-.34,1.5-.49v2.68h1.95V898h-1.95Z"/><path class="cls-71" d="M4136.41,900.75a1.92,1.92,0,0,0,1.92,1.84,2.51,2.51,0,0,0,1.9-.74l.79,1.08a4,4,0,0,1-2.73,1,3.72,3.72,0,0,1,0-7.42c1.92,0,3.13,1.56,3.13,3.69v.52Zm0-1.17h3.45a1.67,1.67,0,0,0-1.63-1.78A1.82,1.82,0,0,0,4136.42,899.58Z"/><path class="cls-71" d="M4148.3,901.94c0,.38.16.65.84.65a6,6,0,0,0,.89-.08l.2,1.32a10.09,10.09,0,0,1-1.46.11c-1.2,0-2-.48-2-1.75V898h-1.32v-1.33h1.32v-2.19c.5-.15,1-.34,1.5-.49v2.68h1.94V898h-1.94Z"/><path class="cls-71" d="M4153.18,903.8h-1.48V894h1.48v3.34a2.47,2.47,0,0,1,1.92-.81,2.38,2.38,0,0,1,2.51,2.55v4.73h-1.49v-4.4a1.27,1.27,0,0,0-1.34-1.46,1.57,1.57,0,0,0-1.6,1.7Z"/><path class="cls-71" d="M4160.69,900.75a1.92,1.92,0,0,0,1.91,1.84,2.52,2.52,0,0,0,1.91-.74l.78,1.08a3.94,3.94,0,0,1-2.73,1,3.72,3.72,0,0,1,0-7.42c1.92,0,3.14,1.56,3.14,3.69v.52Zm0-1.17h3.45a1.68,1.68,0,0,0-1.63-1.78A1.82,1.82,0,0,0,4160.7,899.58Z"/><path class="cls-71" d="M4172.1,903.13V906h-1.49v-9.3h1.49v.67a2.43,2.43,0,0,1,1.9-.81c1.91,0,3.19,1.54,3.19,3.71s-1.3,3.71-3.2,3.71A2.42,2.42,0,0,1,4172.1,903.13Zm-.05-2.36a1.68,1.68,0,0,0,1.71,1.82c1.26,0,1.92-1.05,1.92-2.32v-.08c0-1.28-.68-2.33-1.92-2.33a1.68,1.68,0,0,0-1.71,1.82Z"/><path class="cls-71" d="M4185.25,900.23a3.43,3.43,0,1,1-3.42-3.71A3.41,3.41,0,0,1,4185.25,900.23Zm-1.5,0v-.08c0-1.28-.69-2.33-1.92-2.33s-1.92,1-1.92,2.33v.08c0,1.27.68,2.32,1.92,2.32S4183.75,901.54,4183.75,900.27Z"/><path class="cls-71" d="M4186.82,894h1.49v8.11c0,.34.18.51.6.51a6.17,6.17,0,0,0,.77-.06c0,.45.11.84.15,1.29,0,0-.84.1-1.48.1a1.38,1.38,0,0,1-1.53-1.5Z"/><path class="cls-71" d="M4191.64,893.85a1,1,0,1,1-1,1A1,1,0,0,1,4191.64,893.85Zm.74,9.95h-1.48v-7.14h1.48Z"/><path class="cls-71" d="M4194,900.23a3.4,3.4,0,0,1,3.41-3.71,3.12,3.12,0,0,1,2.95,1.85l-1.32.64a1.67,1.67,0,0,0-1.63-1.15c-1.23,0-1.9,1-1.9,2.33v.08c0,1.27.67,2.32,1.9,2.32a1.67,1.67,0,0,0,1.63-1.14l1.32.64a3.13,3.13,0,0,1-2.95,1.85A3.4,3.4,0,0,1,4194,900.23Z"/><path class="cls-71" d="M4201.09,896.66h1.69l1.53,5.32,1.56-5.32h1.66l-2.63,8.06a1.78,1.78,0,0,1-2,1.38,9.51,9.51,0,0,1-1.45-.13l.27-1.32a5.42,5.42,0,0,0,.94.09c.42,0,.59-.2.68-.58l.09-.32Z"/><path class="cls-71" d="M4114.62,917a3.41,3.41,0,0,1,3.42-3.71,3.1,3.1,0,0,1,2.94,1.85l-1.32.64a1.67,1.67,0,0,0-1.62-1.15c-1.24,0-1.91,1.05-1.91,2.33v.08c0,1.27.67,2.32,1.91,2.32a1.67,1.67,0,0,0,1.62-1.14l1.32.64a3.12,3.12,0,0,1-2.94,1.85A3.41,3.41,0,0,1,4114.62,917Z"/><path class="cls-71" d="M4124.56,920.74a2.32,2.32,0,0,1-2.54-2.23,2.09,2.09,0,0,1,2-2.06l2.35-.35v-.28c0-.91-.6-1.17-1.35-1.17a4.42,4.42,0,0,0-2.14.57l-.63-1.16a5.4,5.4,0,0,1,2.73-.74c1.35,0,2.87.36,2.87,2.34V919c0,.27.13.51.54.68l.15.07-.67,1a1.58,1.58,0,0,1-1.26-.81A2.93,2.93,0,0,1,4124.56,920.74Zm.15-3.21c-.52.09-1.15.27-1.15,1s.61,1.06,1.26,1.06,1.56-.52,1.56-1.22v-1.05Z"/><path class="cls-71" d="M4135.56,920.6h-1.48v-4.39c0-1.07-.58-1.45-1.23-1.45s-1.42.52-1.42,1.72v4.12h-1.5v-7.14h1.47v.71a2.3,2.3,0,0,1,1.84-.85,2.12,2.12,0,0,1,1.86,1,2.56,2.56,0,0,1,4.61,1.42v4.83h-1.5v-4.39c0-1.07-.56-1.45-1.22-1.45s-1.43.52-1.43,1.72Z"/><path class="cls-71" d="M4142.79,917.55a1.93,1.93,0,0,0,1.92,1.84,2.51,2.51,0,0,0,1.9-.74l.78,1.08a3.94,3.94,0,0,1-2.73,1,3.72,3.72,0,0,1,0-7.42c1.92,0,3.14,1.56,3.14,3.69v.52Zm0-1.17h3.45a1.68,1.68,0,0,0-1.63-1.78A1.82,1.82,0,0,0,4142.8,916.38Z"/><path class="cls-71" d="M4153.47,910.65a1,1,0,1,1-1,1A1,1,0,0,1,4153.47,910.65Zm.74,10h-1.48v-7.14h1.48Z"/><path class="cls-71" d="M4156.24,913.46h1.49v.67a2.45,2.45,0,0,1,1.91-.81,2.38,2.38,0,0,1,2.51,2.55v4.73h-1.48v-4.4a1.27,1.27,0,0,0-1.35-1.46,1.56,1.56,0,0,0-1.59,1.7v4.16h-1.49Z"/><path class="cls-71" d="M4166.35,918.74c0,.38.17.65.84.65a6,6,0,0,0,.9-.08l.19,1.32a10,10,0,0,1-1.45.11c-1.21,0-2-.48-2-1.75v-4.2h-1.32v-1.33h1.32v-2.19c.5-.15,1-.34,1.5-.49v2.68h1.95v1.33h-1.95Z"/><path class="cls-71" d="M4176.18,917a3.43,3.43,0,1,1-3.42-3.71A3.41,3.41,0,0,1,4176.18,917Zm-1.5,0V917c0-1.28-.68-2.33-1.92-2.33s-1.92,1.05-1.92,2.33v.08c0,1.27.69,2.32,1.92,2.32S4174.68,918.34,4174.68,917.07Z"/><path class="cls-71" d="M4182.8,919.93v2.83h-1.48v-9.3h1.48v.67a2.45,2.45,0,0,1,1.91-.81c1.9,0,3.19,1.54,3.19,3.71s-1.3,3.71-3.21,3.71A2.44,2.44,0,0,1,4182.8,919.93Zm0-2.36a1.67,1.67,0,0,0,1.71,1.82c1.26,0,1.92-1,1.92-2.32V917c0-1.28-.69-2.33-1.92-2.33a1.67,1.67,0,0,0-1.71,1.82Z"/><path class="cls-71" d="M4189.49,910.79H4191v8.11c0,.34.19.51.61.51a6.17,6.17,0,0,0,.77-.06c0,.45.11.84.15,1.29,0,0-.84.1-1.48.1a1.38,1.38,0,0,1-1.53-1.5Z"/><path class="cls-71" d="M4195.63,920.74a2.31,2.31,0,0,1-2.54-2.23,2.08,2.08,0,0,1,2-2.06l2.36-.35v-.28c0-.91-.61-1.17-1.35-1.17a4.39,4.39,0,0,0-2.14.57l-.63-1.16a5.4,5.4,0,0,1,2.73-.74c1.34,0,2.87.36,2.87,2.34V919a.72.72,0,0,0,.53.68l.16.07-.68,1a1.61,1.61,0,0,1-1.26-.81A2.89,2.89,0,0,1,4195.63,920.74Zm.15-3.21c-.52.09-1.15.27-1.15,1s.6,1.06,1.26,1.06,1.56-.52,1.56-1.22v-1.05Z"/><path class="cls-71" d="M4200.12,913.46h1.69l1.53,5.32,1.55-5.32h1.67l-2.63,8.06a1.79,1.79,0,0,1-2,1.38,9.49,9.49,0,0,1-1.44-.13l.27-1.32a5.42,5.42,0,0,0,.94.09c.42,0,.58-.2.68-.58l.09-.32Z"/><path class="cls-70" d="M4386.65,936.12c2.27-4.81,11.16-25.86-7.08-26.13"/><polygon class="cls-71" points="4391.7 934.75 4391.31 933.83 4386.77 935.75 4385.19 931.08 4384.24 931.4 4386.17 937.09 4391.7 934.75"/><path class="cls-71" d="M4277.66,900.23c0-2.17,1.29-3.71,3.19-3.71a2.47,2.47,0,0,1,1.91.81V894h1.48v9.81h-1.48v-.67a2.45,2.45,0,0,1-1.89.81C4279,903.94,4277.66,902.41,4277.66,900.23Zm5.14-.55a1.68,1.68,0,0,0-1.71-1.82c-1.23,0-1.92,1-1.92,2.33v.08c0,1.27.66,2.32,1.92,2.32a1.68,1.68,0,0,0,1.71-1.82Z"/><path class="cls-71" d="M4288.33,903.94a2.32,2.32,0,0,1-2.54-2.23,2.09,2.09,0,0,1,2-2.06l2.35-.35V899c0-.91-.6-1.17-1.35-1.17a4.42,4.42,0,0,0-2.14.57l-.63-1.16a5.4,5.4,0,0,1,2.73-.74c1.35,0,2.87.36,2.87,2.34v3.31c0,.27.13.51.54.68l.15.07-.67,1a1.58,1.58,0,0,1-1.26-.81A2.93,2.93,0,0,1,4288.33,903.94Zm.15-3.21c-.52.09-1.15.27-1.15.95s.61,1.06,1.26,1.06,1.56-.52,1.56-1.22v-1Z"/><path class="cls-71" d="M4295.89,901.94c0,.38.17.65.84.65a6,6,0,0,0,.9-.08l.19,1.32a10.09,10.09,0,0,1-1.46.11c-1.2,0-2-.48-2-1.75V898h-1.32v-1.33h1.32v-2.19c.5-.15,1-.34,1.5-.49v2.68h1.95V898h-1.95Z"/><path class="cls-71" d="M4300.41,900.75a1.92,1.92,0,0,0,1.92,1.84,2.51,2.51,0,0,0,1.9-.74l.79,1.08a4,4,0,0,1-2.73,1,3.72,3.72,0,0,1,0-7.42c1.92,0,3.13,1.56,3.13,3.69v.52Zm0-1.17h3.45a1.67,1.67,0,0,0-1.63-1.78A1.82,1.82,0,0,0,4300.42,899.58Z"/><path class="cls-71" d="M4312.3,901.94c0,.38.16.65.84.65a6,6,0,0,0,.89-.08l.2,1.32a10.09,10.09,0,0,1-1.46.11c-1.2,0-2-.48-2-1.75V898h-1.32v-1.33h1.32v-2.19c.5-.15,1-.34,1.5-.49v2.68h1.94V898h-1.94Z"/><path class="cls-71" d="M4317.18,903.8h-1.48V894h1.48v3.34a2.47,2.47,0,0,1,1.92-.81,2.38,2.38,0,0,1,2.51,2.55v4.73h-1.49v-4.4a1.27,1.27,0,0,0-1.34-1.46,1.57,1.57,0,0,0-1.6,1.7Z"/><path class="cls-71" d="M4324.69,900.75a1.92,1.92,0,0,0,1.91,1.84,2.52,2.52,0,0,0,1.91-.74l.78,1.08a3.94,3.94,0,0,1-2.73,1,3.72,3.72,0,0,1,0-7.42c1.92,0,3.14,1.56,3.14,3.69v.52Zm0-1.17h3.45a1.68,1.68,0,0,0-1.63-1.78A1.82,1.82,0,0,0,4324.7,899.58Z"/><path class="cls-71" d="M4336.1,903.13V906h-1.49v-9.3h1.49v.67a2.43,2.43,0,0,1,1.9-.81c1.91,0,3.19,1.54,3.19,3.71s-1.3,3.71-3.2,3.71A2.42,2.42,0,0,1,4336.1,903.13Zm-.05-2.36a1.68,1.68,0,0,0,1.71,1.82c1.26,0,1.92-1.05,1.92-2.32v-.08c0-1.28-.68-2.33-1.92-2.33a1.68,1.68,0,0,0-1.71,1.82Z"/><path class="cls-71" d="M4349.25,900.23a3.43,3.43,0,1,1-3.42-3.71A3.41,3.41,0,0,1,4349.25,900.23Zm-1.5,0v-.08c0-1.28-.69-2.33-1.92-2.33s-1.92,1-1.92,2.33v.08c0,1.27.68,2.32,1.92,2.32S4347.75,901.54,4347.75,900.27Z"/><path class="cls-71" d="M4350.82,894h1.49v8.11c0,.34.18.51.6.51a6.17,6.17,0,0,0,.77-.06c0,.45.11.84.15,1.29,0,0-.84.1-1.48.1a1.38,1.38,0,0,1-1.53-1.5Z"/><path class="cls-71" d="M4355.64,893.85a1,1,0,1,1-1,1A1,1,0,0,1,4355.64,893.85Zm.74,9.95h-1.48v-7.14h1.48Z"/><path class="cls-71" d="M4358,900.23a3.4,3.4,0,0,1,3.41-3.71,3.12,3.12,0,0,1,2.95,1.85l-1.32.64a1.67,1.67,0,0,0-1.63-1.15c-1.23,0-1.9,1-1.9,2.33v.08c0,1.27.67,2.32,1.9,2.32a1.67,1.67,0,0,0,1.63-1.14l1.32.64a3.13,3.13,0,0,1-2.95,1.85A3.4,3.4,0,0,1,4358,900.23Z"/><path class="cls-71" d="M4365.09,896.66h1.69l1.53,5.32,1.56-5.32h1.66l-2.63,8.06a1.78,1.78,0,0,1-2,1.38,9.51,9.51,0,0,1-1.45-.13l.27-1.32a5.42,5.42,0,0,0,.94.09c.42,0,.59-.2.68-.58l.09-.32Z"/><path class="cls-71" d="M4306.55,917.55a1.94,1.94,0,0,0,1.92,1.84,2.52,2.52,0,0,0,1.91-.74l.78,1.08a4,4,0,0,1-2.73,1,3.72,3.72,0,0,1,0-7.42c1.92,0,3.14,1.56,3.14,3.69v.52Zm0-1.17H4310a1.66,1.66,0,0,0-1.62-1.78A1.81,1.81,0,0,0,4306.57,916.38Z"/><path class="cls-71" d="M4313.11,913.46h1.48v.67a2.47,2.47,0,0,1,1.92-.81,2.38,2.38,0,0,1,2.51,2.55v4.73h-1.49v-4.4a1.27,1.27,0,0,0-1.34-1.46,1.57,1.57,0,0,0-1.6,1.7v4.16h-1.48Z"/><path class="cls-71" d="M4320.58,917c0-2.17,1.29-3.71,3.2-3.71a2.44,2.44,0,0,1,1.9.81v-3.34h1.49v9.81h-1.49v-.67a2.44,2.44,0,0,1-1.89.81C4321.88,920.74,4320.58,919.21,4320.58,917Zm5.14-.55a1.67,1.67,0,0,0-1.71-1.82c-1.23,0-1.92,1.05-1.92,2.33v.08c0,1.27.66,2.32,1.92,2.32a1.67,1.67,0,0,0,1.71-1.82Z"/><path class="cls-71" d="M4330.3,917.55a1.93,1.93,0,0,0,1.92,1.84,2.51,2.51,0,0,0,1.9-.74l.79,1.08a4,4,0,0,1-2.73,1,3.72,3.72,0,0,1,0-7.42c1.91,0,3.13,1.56,3.13,3.69v.52Zm0-1.17h3.45a1.67,1.67,0,0,0-1.63-1.78A1.82,1.82,0,0,0,4330.31,916.38Z"/><path class="cls-71" d="M4336.46,917c0-2.17,1.29-3.71,3.19-3.71a2.47,2.47,0,0,1,1.91.81v-3.34H4343v9.81h-1.48v-.67a2.45,2.45,0,0,1-1.89.81C4337.76,920.74,4336.46,919.21,4336.46,917Zm5.14-.55a1.68,1.68,0,0,0-1.71-1.82c-1.23,0-1.92,1.05-1.92,2.33v.08c0,1.27.66,2.32,1.92,2.32a1.68,1.68,0,0,0,1.71-1.82Z"/><text class="cls-72" transform="translate(3023.62 1054.98)">nam<tspan class="cls-75" x="27.05" y="0">e</tspan><tspan class="cls-84" x="34.57" y="0" xml:space="preserve"> gi</tspan><tspan class="cls-82" x="49.56" y="0">v</tspan><tspan x="56.41" y="0">en</tspan><tspan class="cls-45" x="71.95" y="0"> </tspan><tspan x="75.2" y="0">to polic</tspan><tspan class="cls-51" x="123.66" y="0">y</tspan></text><path class="cls-70" d="M3089.94,1012c4.35,2.43,21.45,13.3,6,26.49"/><polygon class="cls-71" points="3090.69 1017.26 3091.65 1016.97 3090.25 1012.25 3095.06 1011.19 3094.85 1010.21 3088.98 1011.5 3090.69 1017.26"/><text class="cls-72" transform="translate(3504.94 925.98)">th<tspan class="cls-82" x="13.51" y="0">e</tspan><tspan class="cls-83" x="21.03" y="0"> </tspan><tspan x="24.28" y="0">type</tspan><tspan class="cls-97" x="52.68" y="0">(</tspan><tspan class="cls-98" x="57.97" y="0">s</tspan><tspan x="64.4" y="0">) </tspan><tspan class="cls-78" x="73.68" y="0">o</tspan><tspan class="cls-83" x="81.65" y="0">f</tspan><tspan x="86.24" y="0" xml:space="preserve"> polic</tspan><tspan class="cls-73" x="121.03" y="0">y</tspan></text><path class="cls-70" d="M3481.91,940.86C3475.74,930,3477,916,3497.06,918"/><polygon class="cls-71" points="3484.05 936 3483.08 935.74 3481.78 940.5 3477.13 938.85 3476.8 939.79 3482.46 941.8 3484.05 936"/></g><g id="annos-document"><text class="cls-72" transform="translate(1337.47 660.98)">an id</text><path class="cls-70" d="M1370.16,624.57c-3.75,2-17.07,9.95-15.78,20.82"/><polygon class="cls-71" points="1365.28 622.66 1365.04 623.63 1369.84 624.79 1368.33 629.49 1369.28 629.79 1371.12 624.07 1365.28 622.66"/><path class="cls-70" d="M1797,644c3.71,1.78,16.06,8.7,4.42,17"/><polygon class="cls-71" points="1798.03 649.15 1798.97 648.82 1797.3 644.18 1802.06 642.86 1801.79 641.89 1796 643.5 1798.03 649.15"/><text class="cls-72" transform="translate(1744.47 676.98)">nam<tspan class="cls-82" x="27.05" y="0">e</tspan><tspan class="cls-90" x="34.57" y="0"> </tspan><tspan class="cls-78" x="38.1" y="0">o</tspan><tspan class="cls-45" x="46.06" y="0">f </tspan><tspan x="53.9" y="0">th</tspan><tspan class="cls-82" x="67.41" y="0">e</tspan><tspan x="74.93" y="0" xml:space="preserve"> plan</tspan></text><text class="cls-72" transform="translate(2171.47 675.98)">documents h<tspan class="cls-79" x="82.74" y="0">a</tspan><tspan class="cls-82" x="90.05" y="0">ve</tspan><tspan class="cls-45" x="104.41" y="0"> </tspan><tspan x="107.66" y="0">types e</tspan><tspan class="cls-79" x="154.13" y="0">.</tspan><tspan x="157.79" y="0">g. loca</tspan><tspan class="cls-99" x="200.05" y="0">l</tspan><tspan x="203.81" y="0">-plan, sdp</tspan></text><path class="cls-70" d="M2170.62,643.13c-4.27,3.16-22.06,17.51-6.12,26.37"/><polygon class="cls-71" points="2165.52 641.94 2165.43 642.94 2170.34 643.39 2169.52 648.26 2170.51 648.42 2171.5 642.5 2165.52 641.94"/><text class="cls-72" transform="translate(1910.89 686.98)">whe<tspan class="cls-79" x="26.05" y="0">r</tspan><tspan class="cls-82" x="31.12" y="0">e</tspan><tspan x="38.64" y="0" xml:space="preserve"> does it li</tspan><tspan class="cls-75" x="96.73" y="0">v</tspan><tspan class="cls-100" x="103.57" y="0">e</tspan><tspan x="110.94" y="0">?</tspan></text><path class="cls-70" d="M1983.16,644.7c3.65,3.23,17.39,16.85.34,25.8"/><polygon class="cls-71" points="1982.79 649.99 1983.79 649.92 1983.41 645 1988.35 644.99 1988.34 643.99 1982.34 644.01 1982.79 649.99"/><text class="cls-72" transform="translate(2376.92 539.8)">th<tspan class="cls-75" x="13.51" y="0">e</tspan><tspan class="cls-84" x="21.03" y="0" xml:space="preserve"> o</tspan><tspan class="cls-74" x="32.59" y="0">r</tspan><tspan x="37.72" y="0">ganis</tspan><tspan class="cls-89" x="71.36" y="0">a</tspan><tspan x="78.75" y="0">tions who</tspan><tspan class="cls-76" x="11.01" y="16.8">o</tspan><tspan x="18.95" y="16.8">wn</tspan><tspan class="cls-45" x="37.33" y="16.8"> </tspan><tspan x="40.58" y="16.8">th</tspan><tspan class="cls-75" x="54.09" y="16.8">e</tspan><tspan x="61.61" y="16.8" xml:space="preserve"> document</tspan></text><path class="cls-70" d="M2391.44,576.25c-12.13-3.12-21.34-13.75-5.94-26.75"/><polygon class="cls-71" points="2389.43 571.34 2388.57 571.85 2391.09 576.09 2386.68 578.3 2387.13 579.19 2392.5 576.5 2389.43 571.34"/><path class="cls-70" d="M2721.06,579.35c4-3.54,20.37-19.45,3.69-26.82"/><polygon class="cls-71" points="2726.25 580.07 2726.26 579.07 2721.32 579.06 2721.69 574.15 2720.69 574.07 2720.25 580.06 2726.25 580.07"/><path class="cls-71" d="M2577.58,533h1.48v8.11c0,.34.18.51.6.51a6.17,6.17,0,0,0,.77-.06c.05.45.12.84.16,1.29,0,0-.84.1-1.49.1a1.38,1.38,0,0,1-1.52-1.5Z"/><path class="cls-71" d="M2582.39,532.85a1,1,0,1,1-1,1A1,1,0,0,1,2582.39,532.85Zm.75,9.95h-1.49v-7.14h1.49Z"/><path class="cls-71" d="M2584.54,541.74l.92-1a3.25,3.25,0,0,0,2.21.94c.76,0,1.24-.33,1.24-.83s-.2-.57-.62-.73-.71-.21-1.16-.34c-.9-.23-2.16-.67-2.16-2.07s1.19-2.18,2.74-2.18a3.78,3.78,0,0,1,2.62,1l.05,0-.89,1a2.82,2.82,0,0,0-1.82-.72c-.75,0-1.19.32-1.19.79s.34.63.81.77,1.13.32,1.71.53a1.86,1.86,0,0,1,1.42,1.79c0,1.54-1.35,2.27-2.82,2.27a4.43,4.43,0,0,1-2.92-1.08Z"/><path class="cls-71" d="M2594.27,540.94c0,.38.17.66.84.66a6,6,0,0,0,.89-.09l.2,1.32a10.09,10.09,0,0,1-1.46.11c-1.2,0-2-.48-2-1.75V537h-1.32v-1.33h1.32v-2.19c.5-.15,1-.33,1.5-.49v2.68h1.94V537h-1.94Z"/><path class="cls-71" d="M2607.63,539.23a3.43,3.43,0,1,1-3.42-3.71A3.41,3.41,0,0,1,2607.63,539.23Zm-1.5,0v-.08c0-1.28-.69-2.33-1.92-2.33s-1.92,1-1.92,2.33v.08c0,1.28.68,2.33,1.92,2.33S2606.13,540.55,2606.13,539.27Z"/><path class="cls-71" d="M2611.21,535.66h1.41V537h-1.41v5.81h-1.49V537h-1.17v-1.33h1.17v-1c0-1.28.91-1.76,2.12-1.76a6.25,6.25,0,0,1,1.31.14l-.12,1.28a9.1,9.1,0,0,0-1.05-.08c-.55,0-.77.3-.77.64Z"/><path class="cls-71" d="M2619.9,535.52a2.41,2.41,0,0,1,1.82.71v-.57h1.49v7.08c0,1.48-1,2.36-3,2.36a6.82,6.82,0,0,1-2.86-.59l.42-1.28a5.93,5.93,0,0,0,2.34.54c1,0,1.65-.38,1.65-1.32v-1a2.38,2.38,0,0,1-1.82.72,3.35,3.35,0,0,1,0-6.66Zm1.87,3.33c0-1.11-.49-2-1.66-2s-1.65.88-1.65,2,.49,2,1.65,2S2621.77,540,2621.77,538.85Z"/><path class="cls-71" d="M2626.34,539.75a1.94,1.94,0,0,0,1.92,1.85,2.54,2.54,0,0,0,1.91-.75l.78,1.08a4,4,0,0,1-2.73,1,3.72,3.72,0,0,1,0-7.42c1.92,0,3.14,1.57,3.14,3.69v.52Zm0-1.17h3.44a1.66,1.66,0,0,0-1.62-1.77A1.8,1.8,0,0,0,2626.36,538.58Z"/><path class="cls-71" d="M2639.32,539.23a3.43,3.43,0,1,1-3.42-3.71A3.41,3.41,0,0,1,2639.32,539.23Zm-1.5,0v-.08c0-1.28-.68-2.33-1.92-2.33s-1.91,1-1.91,2.33v.08c0,1.28.68,2.33,1.91,2.33S2637.82,540.55,2637.82,539.27Z"/><path class="cls-71" d="M2643.55,535.52a2.41,2.41,0,0,1,1.82.71v-.57h1.48v7.08c0,1.48-1,2.36-3,2.36a6.81,6.81,0,0,1-2.85-.59l.42-1.28a5.89,5.89,0,0,0,2.34.54c1,0,1.65-.38,1.65-1.32v-1a2.4,2.4,0,0,1-1.82.72,3.35,3.35,0,0,1,0-6.66Zm1.86,3.33c0-1.11-.49-2-1.65-2s-1.65.88-1.65,2,.49,2,1.65,2S2645.41,540,2645.41,538.85Z"/><path class="cls-71" d="M2652.75,537.06h-.24a2,2,0,0,0-2.16,2.22v3.52h-1.48v-7.14h1.45v1a2.44,2.44,0,0,1,2.16-1.07h.27Z"/><path class="cls-71" d="M2656.15,542.94a2.32,2.32,0,0,1-2.54-2.23,2.09,2.09,0,0,1,2-2.06l2.35-.35V538c0-.91-.6-1.17-1.35-1.17a4.42,4.42,0,0,0-2.14.57l-.63-1.16a5.4,5.4,0,0,1,2.73-.74c1.35,0,2.87.36,2.87,2.34v3.32c0,.26.13.5.54.67l.15.07-.67,1a1.58,1.58,0,0,1-1.26-.81A2.93,2.93,0,0,1,2656.15,542.94Zm.15-3.21c-.52.09-1.15.27-1.15,1s.6,1,1.26,1,1.56-.52,1.56-1.22v-1Z"/><path class="cls-71" d="M2663,542.13V545h-1.49v-9.3H2663v.67a2.43,2.43,0,0,1,1.9-.81c1.91,0,3.2,1.54,3.2,3.71s-1.31,3.71-3.21,3.71A2.42,2.42,0,0,1,2663,542.13Zm-.05-2.36a1.69,1.69,0,0,0,1.71,1.83c1.26,0,1.92-1.05,1.92-2.33v-.08c0-1.28-.68-2.33-1.92-2.33a1.68,1.68,0,0,0-1.71,1.82Z"/><path class="cls-71" d="M2671.21,542.8h-1.48V533h1.48v3.34a2.5,2.5,0,0,1,1.92-.81,2.38,2.38,0,0,1,2.51,2.55v4.73h-1.49v-4.4a1.27,1.27,0,0,0-1.34-1.46,1.57,1.57,0,0,0-1.6,1.7Z"/><path class="cls-71" d="M2678.35,532.85a1,1,0,1,1-1,1A1,1,0,0,1,2678.35,532.85Zm.74,9.95h-1.48v-7.14h1.48Z"/><path class="cls-71" d="M2680.72,539.23a3.4,3.4,0,0,1,3.41-3.71,3.11,3.11,0,0,1,2.95,1.85l-1.32.64a1.67,1.67,0,0,0-1.63-1.15c-1.23,0-1.9,1-1.9,2.33v.08c0,1.28.67,2.33,1.9,2.33a1.68,1.68,0,0,0,1.63-1.15l1.32.64a3.12,3.12,0,0,1-2.95,1.85A3.4,3.4,0,0,1,2680.72,539.23Z"/><path class="cls-71" d="M2694.19,542.94a2.32,2.32,0,0,1-2.54-2.23,2.08,2.08,0,0,1,2-2.06l2.36-.35V538c0-.91-.6-1.17-1.35-1.17a4.42,4.42,0,0,0-2.14.57l-.63-1.16a5.4,5.4,0,0,1,2.73-.74c1.34,0,2.87.36,2.87,2.34v3.32c0,.26.13.5.53.67l.16.07-.67,1a1.58,1.58,0,0,1-1.26-.81A2.93,2.93,0,0,1,2694.19,542.94Zm.15-3.21c-.52.09-1.15.27-1.15,1s.6,1,1.26,1,1.56-.52,1.56-1.22v-1Z"/><path class="cls-71" d="M2703.44,537.06h-.24a1.94,1.94,0,0,0-2.15,2.22v3.52h-1.49v-7.14H2701v1a2.4,2.4,0,0,1,2.15-1.07h.27Z"/><path class="cls-71" d="M2705.75,539.75a1.93,1.93,0,0,0,1.92,1.85,2.5,2.5,0,0,0,1.9-.75l.79,1.08a4,4,0,0,1-2.73,1,3.72,3.72,0,0,1,0-7.42c1.92,0,3.13,1.57,3.13,3.69v.52Zm0-1.17h3.45a1.66,1.66,0,0,0-1.63-1.77A1.81,1.81,0,0,0,2705.76,538.58Z"/><path class="cls-71" d="M2714.38,542.94a2.31,2.31,0,0,1-2.54-2.23,2.08,2.08,0,0,1,2-2.06l2.36-.35V538c0-.91-.61-1.17-1.35-1.17a4.39,4.39,0,0,0-2.14.57l-.63-1.16a5.4,5.4,0,0,1,2.73-.74c1.34,0,2.87.36,2.87,2.34v3.32c0,.26.13.5.53.67l.16.07-.68,1a1.61,1.61,0,0,1-1.26-.81A2.89,2.89,0,0,1,2714.38,542.94Zm.15-3.21c-.52.09-1.15.27-1.15,1s.6,1,1.26,1,1.56-.52,1.56-1.22v-1Z"/><path class="cls-71" d="M2719.12,541.74l.92-1a3.26,3.26,0,0,0,2.22.94c.75,0,1.23-.33,1.23-.83s-.2-.57-.62-.73-.71-.21-1.16-.34c-.9-.23-2.16-.67-2.16-2.07s1.19-2.18,2.75-2.18a3.82,3.82,0,0,1,2.62,1l0,0-.88,1a2.87,2.87,0,0,0-1.82-.72c-.76,0-1.19.32-1.19.79s.33.63.81.77,1.12.32,1.71.53a1.86,1.86,0,0,1,1.41,1.79c0,1.54-1.34,2.27-2.81,2.27a4.45,4.45,0,0,1-2.93-1.08Z"/><path class="cls-71" d="M2732.1,540.94c0,.38.17.66.84.66a5.69,5.69,0,0,0,.89-.09l.2,1.32a10.09,10.09,0,0,1-1.46.11c-1.2,0-2-.48-2-1.75V537h-1.32v-1.33h1.32v-2.19c.5-.15,1-.33,1.5-.49v2.68h2V537h-2Z"/><path class="cls-71" d="M2737,542.8h-1.48V533H2737v3.34a2.52,2.52,0,0,1,1.92-.81,2.38,2.38,0,0,1,2.51,2.55v4.73h-1.49v-4.4a1.27,1.27,0,0,0-1.34-1.46,1.57,1.57,0,0,0-1.6,1.7Z"/><path class="cls-71" d="M2744.49,539.75a1.93,1.93,0,0,0,1.92,1.85,2.51,2.51,0,0,0,1.9-.75l.79,1.08a4,4,0,0,1-2.74,1,3.72,3.72,0,0,1,0-7.42c1.92,0,3.14,1.57,3.14,3.69v.52Zm0-1.17H2748a1.67,1.67,0,0,0-1.63-1.77A1.81,1.81,0,0,0,2744.5,538.58Z"/><path class="cls-71" d="M2608.91,556c0-2.17,1.29-3.71,3.19-3.71a2.45,2.45,0,0,1,1.91.81v-3.34h1.48v9.81H2614v-.67a2.44,2.44,0,0,1-1.89.81C2610.21,559.74,2608.91,558.21,2608.91,556Zm5.14-.55a1.67,1.67,0,0,0-1.71-1.82c-1.23,0-1.92,1.05-1.92,2.33v.08c0,1.28.66,2.33,1.92,2.33a1.68,1.68,0,0,0,1.71-1.83Z"/><path class="cls-71" d="M2623.94,556a3.43,3.43,0,1,1-3.42-3.71A3.41,3.41,0,0,1,2623.94,556Zm-1.5,0V556c0-1.28-.69-2.33-1.92-2.33s-1.92,1.05-1.92,2.33v.08c0,1.28.68,2.33,1.92,2.33S2622.44,557.35,2622.44,556.07Z"/><path class="cls-71" d="M2625.14,556a3.4,3.4,0,0,1,3.41-3.71,3.13,3.13,0,0,1,2.95,1.85l-1.32.64a1.67,1.67,0,0,0-1.63-1.15c-1.23,0-1.9,1.05-1.9,2.33v.08c0,1.28.67,2.33,1.9,2.33a1.68,1.68,0,0,0,1.63-1.15l1.32.64a3.14,3.14,0,0,1-2.95,1.85A3.4,3.4,0,0,1,2625.14,556Z"/><path class="cls-71" d="M2638.86,559.6h-1.49v-.67a2.44,2.44,0,0,1-1.9.81,2.38,2.38,0,0,1-2.52-2.55v-4.73h1.48v4.39a1.27,1.27,0,0,0,1.35,1.46,1.54,1.54,0,0,0,1.59-1.69v-4.16h1.49Z"/><path class="cls-71" d="M2646.5,559.6H2645v-4.38c0-1.08-.58-1.46-1.23-1.46s-1.42.52-1.42,1.72v4.12h-1.5v-7.14h1.47v.71a2.29,2.29,0,0,1,1.84-.85,2.12,2.12,0,0,1,1.86,1,2.56,2.56,0,0,1,4.61,1.42v4.83h-1.5v-4.38c0-1.08-.56-1.46-1.22-1.46s-1.43.52-1.43,1.72Z"/><path class="cls-71" d="M2653.72,556.55a1.94,1.94,0,0,0,1.92,1.85,2.52,2.52,0,0,0,1.91-.75l.78,1.08a4,4,0,0,1-2.73,1,3.72,3.72,0,0,1,0-7.42c1.92,0,3.14,1.57,3.14,3.69v.52Zm0-1.17h3.44a1.66,1.66,0,0,0-1.62-1.78A1.8,1.8,0,0,0,2653.74,555.38Z"/><path class="cls-71" d="M2660.28,552.46h1.48v.67a2.47,2.47,0,0,1,1.92-.81,2.38,2.38,0,0,1,2.51,2.55v4.73h-1.49v-4.4a1.27,1.27,0,0,0-1.34-1.46,1.57,1.57,0,0,0-1.6,1.7v4.16h-1.48Z"/><path class="cls-71" d="M2670.39,557.74c0,.38.16.66.84.66a6,6,0,0,0,.89-.09l.2,1.32a10.09,10.09,0,0,1-1.46.11c-1.2,0-2-.48-2-1.75v-4.2h-1.32v-1.33h1.32v-2.19c.5-.15,1-.33,1.5-.49v2.68h1.94v1.33h-1.94Z"/><path class="cls-71" d="M2676.91,556a3.41,3.41,0,0,1,3.42-3.71,3.1,3.1,0,0,1,2.94,1.85l-1.32.64a1.67,1.67,0,0,0-1.62-1.15c-1.24,0-1.91,1.05-1.91,2.33v.08c0,1.28.67,2.33,1.91,2.33a1.68,1.68,0,0,0,1.62-1.15l1.32.64a3.12,3.12,0,0,1-2.94,1.85A3.41,3.41,0,0,1,2676.91,556Z"/><path class="cls-71" d="M2691.15,556a3.43,3.43,0,1,1-3.42-3.71A3.41,3.41,0,0,1,2691.15,556Zm-1.5,0V556c0-1.28-.69-2.33-1.92-2.33s-1.92,1.05-1.92,2.33v.08c0,1.28.69,2.33,1.92,2.33S2689.65,557.35,2689.65,556.07Z"/><path class="cls-71" d="M2694.2,559.6l-2.33-7.14h1.7l1.53,5.32,1.55-5.32h1.67L2696,559.6Z"/><path class="cls-71" d="M2700.57,556.55a1.93,1.93,0,0,0,1.92,1.85,2.5,2.5,0,0,0,1.9-.75l.79,1.08a4,4,0,0,1-2.73,1,3.72,3.72,0,0,1,0-7.42c1.92,0,3.13,1.57,3.13,3.69v.52Zm0-1.17H2704a1.67,1.67,0,0,0-1.63-1.78A1.82,1.82,0,0,0,2700.58,555.38Z"/><path class="cls-71" d="M2711,553.86h-.24a1.94,1.94,0,0,0-2.15,2.22v3.52h-1.49v-7.14h1.46v.95a2.4,2.4,0,0,1,2.15-1.07h.27Z"/><path class="cls-71" d="M2711.7,558.54l.92-1a3.26,3.26,0,0,0,2.22.94c.75,0,1.23-.33,1.23-.83s-.2-.58-.62-.73-.71-.21-1.16-.34c-.9-.23-2.16-.67-2.16-2.07s1.19-2.18,2.75-2.18a3.82,3.82,0,0,1,2.62,1l0,0-.88,1a2.87,2.87,0,0,0-1.82-.72c-.76,0-1.19.32-1.19.79s.33.63.81.77,1.12.32,1.71.53a1.86,1.86,0,0,1,1.41,1.79c0,1.54-1.34,2.27-2.81,2.27a4.45,4.45,0,0,1-2.93-1.08Z"/><path class="cls-70" d="M3820.32,608.58c5.17-1.26,27.14-7.57,15.89-21.93"/><polygon class="cls-71" points="3824.57 611.65 3825.04 610.77 3820.69 608.44 3823.33 604.28 3822.48 603.74 3819.27 608.82 3824.57 611.65"/><text class="cls-72" transform="translate(3761.79 559.8)">a d<tspan class="cls-81" x="19.18" y="0">a</tspan><tspan x="26.57" y="0">t</tspan><tspan class="cls-82" x="32.21" y="0">e</tspan><tspan class="cls-83" x="39.73" y="0"> </tspan><tspan x="42.98" y="0">this document</tspan><tspan x="13.47" y="16.8">is no longe</tspan><tspan class="cls-39" x="82.37" y="16.8">r</tspan><tspan x="87.28" y="16.8" xml:space="preserve"> used</tspan></text><path class="cls-70" d="M3642.06,578.35c4-3.54,20.37-19.45,3.69-26.82"/><polygon class="cls-71" points="3647.25 579.07 3647.26 578.07 3642.32 578.06 3642.69 573.15 3641.69 573.07 3641.25 579.06 3647.25 579.07"/><text class="cls-72" transform="translate(3553.23 529.8)">a d<tspan class="cls-81" x="19.18" y="0">a</tspan><tspan x="26.57" y="0">t</tspan><tspan class="cls-82" x="32.21" y="0">e</tspan><tspan class="cls-83" x="39.73" y="0"> </tspan><tspan x="42.98" y="0">th</tspan><tspan class="cls-82" x="56.49" y="0">e</tspan><tspan x="-37.37" y="16.8">document starts</tspan><tspan class="cls-75" x="68.3" y="16.8"> </tspan><tspan class="cls-84" x="71.67" y="16.8">f</tspan><tspan class="cls-79" x="76.55" y="16.8">r</tspan><tspan x="81.61" y="16.8">om</tspan></text><path class="cls-70" d="M3359.28,575.35c-4-3.54-20.37-19.45-3.68-26.82"/><polygon class="cls-71" points="3359.65 570.07 3358.65 570.14 3359.02 575.06 3354.09 575.07 3354.09 576.07 3360.09 576.06 3359.65 570.07"/><text class="cls-72" transform="translate(3345.3 538.8)">a d<tspan class="cls-81" x="19.18" y="0">a</tspan><tspan x="26.57" y="0">t</tspan><tspan class="cls-82" x="32.21" y="0">e</tspan><tspan class="cls-83" x="39.73" y="0"> </tspan><tspan x="42.98" y="0">this </tspan><tspan class="cls-80" x="70.41" y="0">r</tspan><tspan x="75.48" y="0">e</tspan><tspan class="cls-81" x="83.15" y="0">c</tspan><tspan x="90.55" y="0">o</tspan><tspan class="cls-77" x="98.59" y="0">r</tspan><tspan x="103.67" y="0">d</tspan><tspan class="cls-81" x="21.92" y="16.8">w</tspan><tspan x="32.38" y="16.8">as added</tspan></text><text class="cls-72" transform="translate(3107.79 534.8)">a list <tspan class="cls-78" x="34.57" y="0">o</tspan><tspan class="cls-83" x="42.53" y="0">f</tspan><tspan x="47.13" y="0" xml:space="preserve"> policies in</tspan><tspan x="12.93" y="16.8">th</tspan><tspan class="cls-75" x="26.44" y="16.8">e</tspan><tspan class="cls-84" x="33.96" y="16.8" xml:space="preserve"> document</tspan></text><path class="cls-70" d="M3120.44,573.25c-12.13-3.12-21.34-13.75-5.94-26.75"/><polygon class="cls-71" points="3118.43 568.34 3117.57 568.85 3120.09 573.09 3115.68 575.3 3116.13 576.19 3121.5 573.5 3118.43 568.34"/></g></g><g id="development-policy-area"><text class="cls-1" transform="translate(1867.67 1420.81)">development-policy-area</text><rect class="cls-2" x="1853.67" y="1390.56" width="337.19" height="49.4"/><text class="cls-1" transform="translate(2212.86 1420.81)">documentation-url</text><rect class="cls-2" x="2198.86" y="1390.56" width="256.53" height="49.4"/><text class="cls-1" transform="translate(2477.39 1420.81)">geometry</text><rect class="cls-2" x="2463.39" y="1390.56" width="135.54" height="49.4"/><text class="cls-1" transform="translate(2620.93 1420.81)">names</text><rect class="cls-2" x="2606.93" y="1390.56" width="95.21" height="49.4"/><text class="cls-1" transform="translate(2724.14 1420.81)">organisation</text><rect class="cls-2" x="2710.14" y="1390.56" width="189.31" height="49.4"/><text class="cls-5" transform="translate(2914.46 1429.35)">entry-date</text><rect class="cls-3" x="2908.46" y="1411.37" width="111.05" height="27.77"/><rect class="cls-4" x="2907.46" y="1410.37" width="113.05" height="29.77"/><text class="cls-5" transform="translate(2914.46 1429.35)">entry-date</text><text class="cls-5" transform="translate(3035.51 1429.35)">start-date</text><rect class="cls-3" x="3029.51" y="1411.37" width="111.05" height="27.77"/><rect class="cls-4" x="3028.51" y="1410.37" width="113.05" height="29.77"/><text class="cls-5" transform="translate(3035.51 1429.35)">start-date</text><text class="cls-5" transform="translate(3155.56 1429.35)">end-date</text><rect class="cls-3" x="3149.56" y="1411.37" width="91.24" height="27.77"/><rect class="cls-4" x="3148.56" y="1410.37" width="93.24" height="29.77"/><text class="cls-5" transform="translate(3155.56 1429.35)">end-date</text><text class="cls-15" transform="translate(1850.93 1280.71)">D<tspan class="cls-16" x="21.63" y="0">e</tspan><tspan class="cls-17" x="38.22" y="0">v</tspan><tspan x="53.34" y="0">elopment polic</tspan><tspan class="cls-18" x="263.37" y="0">y</tspan><tspan x="277.98" y="0" xml:space="preserve"> a</tspan><tspan class="cls-101" x="301.32" y="0">r</tspan><tspan x="312.72" y="0">ea</tspan></text><text class="cls-6" transform="translate(1851.93 1309.2)">Describes a geographic a<tspan class="cls-10" x="217.49" y="0">r</tspan><tspan x="224.37" y="0">ea</tspan><tspan class="cls-8" x="0" y="22.8">A</tspan><tspan x="12.2" y="22.8" xml:space="preserve"> singl</tspan><tspan class="cls-9" x="58" y="22.8">e</tspan><tspan x="68.21" y="22.8" xml:space="preserve"> entr</tspan><tspan class="cls-7" x="108.81" y="22.8">y</tspan><tspan x="117.72" y="22.8"> </tspan><tspan class="cls-8" x="122.51" y="22.8">(</tspan><tspan class="cls-10" x="129.79" y="22.8">r</tspan><tspan class="cls-11" x="136.67" y="22.8">o</tspan><tspan class="cls-12" x="147.44" y="22.8">w</tspan><tspan x="161.21" y="22.8">) describes a singl</tspan><tspan class="cls-13" x="318.21" y="22.8">e</tspan><tspan x="328.41" y="22.8" xml:space="preserve"> a</tspan><tspan class="cls-53" x="343.31" y="22.8">r</tspan><tspan x="350.19" y="22.8">ea.</tspan></text></g></svg>